<?xml version="1.0" encoding="utf-8" standalone="no"?>
<!DOCTYPE svg PUBLIC "-//W3C//DTD SVG 1.1//EN"
  "http://www.w3.org/Graphics/SVG/1.1/DTD/svg11.dtd">
<svg xmlns:xlink="http://www.w3.org/1999/xlink" width="1238.4pt" height="1238.4pt" viewBox="0 0 1238.4 1238.4" xmlns="http://www.w3.org/2000/svg" version="1.1">
 <metadata>
  <rdf:RDF xmlns:dc="http://purl.org/dc/elements/1.1/" xmlns:cc="http://creativecommons.org/ns#" xmlns:rdf="http://www.w3.org/1999/02/22-rdf-syntax-ns#">
   <cc:Work>
    <dc:type rdf:resource="http://purl.org/dc/dcmitype/StillImage"/>
    <dc:date>2025-01-14T16:39:34.042073</dc:date>
    <dc:format>image/svg+xml</dc:format>
    <dc:creator>
     <cc:Agent>
      <dc:title>Matplotlib v3.8.4, https://matplotlib.org/</dc:title>
     </cc:Agent>
    </dc:creator>
   </cc:Work>
  </rdf:RDF>
 </metadata>
 <defs>
  <style type="text/css">*{stroke-linejoin: round; stroke-linecap: butt}</style>
 </defs>
 <g id="figure_1">
  <g id="patch_1">
   <path d="M 0 1238.4 
L 1238.4 1238.4 
L 1238.4 0 
L 0 0 
L 0 1238.4 
z
" style="fill: none"/>
  </g>
  <g id="axes_1">
   <g id="line2d_1">
    <path d="M 673.784028 497.415794 
L 671.942228 509.532268 
L 669.621597 525.657547 
L 668.027843 534.787123 
L 666.918568 540.72893 
L 665.319168 543.114933 
M 673.784028 497.415794 
L 675.932081 490.821659 
L 677.701675 486.162729 
L 679.82352 481.214615 
L 683.667132 473.006004 
L 691.163502 457.533228 
L 691.760749 456.723546 
M 673.784028 497.415794 
L 677.809671 499.765804 
L 686.018717 504.987129 
L 696.726175 512.12887 
L 707.999156 519.654875 
L 709.427585 520.8649 
M 673.784028 497.415794 
L 677.979664 499.988182 
L 689.590179 507.525676 
L 709.619343 521.041193 
M 673.784028 497.415794 
L 677.578609 499.515193 
L 681.934316 502.265606 
L 692.528004 509.370263 
L 705.256721 517.763346 
L 708.629484 519.958104 
L 708.657124 520.163482 
M 663.09091 493.166683 
L 666.324158 493.324842 
L 667.84267 493.189708 
L 669.283626 492.830223 
L 670.648324 492.208255 
L 671.946759 491.306869 
L 673.19605 490.126943 
L 674.417262 488.682042 
L 675.632241 486.992438 
L 678.118597 482.967484 
L 684.959359 471.075709 
L 686.442777 468.927654 
L 687.965789 466.978798 
L 689.52366 465.221042 
L 692.706305 462.124937 
L 700.593514 454.962817 
L 708.46107 447.24561 
L 714.880381 440.849295 
L 717.902487 437.346557 
L 720.65014 433.554384 
L 723.163082 429.548262 
L 725.58898 425.465742 
L 729.246156 425.901493 
M 691.760749 456.723546 
L 697.119153 477.632519 
L 699.616071 487.745828 
L 701.042703 494.526818 
L 702.930949 503.935183 
L 703.609034 506.704244 
L 704.35294 509.263934 
L 705.169156 511.629869 
L 706.978556 515.931782 
L 708.883288 520.008622 
L 708.124267 519.684756 
M 691.760749 456.723546 
L 687.139436 465.837929 
L 683.338114 473.407877 
L 680.807295 478.957927 
L 678.396191 484.800701 
L 674.983446 493.829695 
L 673.861411 496.856696 
L 671.688832 496.498201 
M 724.892035 423.486784 
L 723.072883 427.927464 
L 721.999129 430.074584 
L 720.797292 432.163988 
L 719.471935 434.193029 
L 716.528733 438.070499 
L 711.938623 443.666434 
L 710.549203 445.602133 
L 709.298292 447.621329 
L 708.207561 449.735049 
L 707.281356 451.942213 
L 706.506939 454.232565 
L 705.294023 458.992375 
L 704.256801 463.845038 
L 703.67722 462.588188 
M 724.892035 423.486784 
L 728.542014 413.868317 
L 730.66431 409.160393 
L 733.080332 404.751145 
L 737.305162 397.961979 
L 745.497436 384.806273 
L 746.145025 384.406055 
M 676.768178 551.363284 
L 663.315629 563.015368 
L 660.37388 565.350477 
L 653.143697 570.759865 
L 650.239881 573.323225 
L 647.258098 576.308356 
L 642.698892 581.19732 
L 642.698892 581.427247 
M 676.768178 551.363284 
L 684.631875 539.731913 
L 687.423996 536.184672 
L 691.851204 531.101793 
L 696.13788 526.143569 
L 699.95367 521.253202 
L 703.732698 515.928358 
M 746.145025 384.406055 
L 752.442346 372.937465 
L 764.638258 350.266969 
L 767.436173 345.34603 
M 715.978272 418.929095 
L 713.105872 425.580964 
L 711.276198 430.342994 
L 706.742176 442.872772 
L 704.554631 447.784251 
L 703.352822 450.097515 
L 702.092681 452.276648 
L 699.450951 456.200832 
L 696.719373 459.663073 
L 693.959769 462.955997 
L 695.89869 458.63546 
M 715.978272 418.929095 
L 718.429319 416.165718 
L 720.873258 412.878324 
L 724.594732 407.326763 
L 727.098092 403.360853 
L 729.547636 399.093048 
L 731.896124 394.452277 
L 735.268156 386.988919 
L 736.380935 384.464393 
L 737.527776 379.947469 
M 703.732698 515.928358 
L 704.529491 516.014757 
L 705.326896 515.88055 
L 706.129502 515.466416 
L 706.944012 514.752829 
L 707.777975 513.754091 
L 709.536869 511.056074 
L 715.963658 499.922149 
L 719.660539 493.069841 
L 723.306702 485.653896 
L 726.862783 478.058622 
L 730.035514 479.990987 
M 767.436173 345.34603 
L 777.099995 328.07346 
L 788.765465 306.306736 
M 730.035514 479.990987 
L 744.361245 464.874873 
L 749.083256 459.529072 
L 759.835722 446.874543 
M 709.427585 520.8649 
L 708.124267 519.684756 
M 709.427585 520.8649 
L 713.591202 516.258885 
L 723.547451 505.429335 
L 734.864571 492.785766 
L 739.43594 487.847118 
L 739.503446 488.086533 
M 709.427585 520.8649 
L 689.483209 507.356973 
L 677.319664 499.14219 
L 674.108539 497.023317 
L 671.688832 496.498201 
M 788.765465 306.306736 
L 788.46404 311.57517 
L 783.911377 418.54797 
L 782.77008 441.416524 
L 779.858992 510.260298 
L 780.009128 508.884419 
M 777.810019 379.456227 
L 778.125677 367.824585 
L 778.430948 347.091843 
L 778.910544 335.29431 
L 779.793732 319.834745 
L 781.004647 302.223821 
M 777.810019 379.456227 
L 777.149097 394.274228 
L 776.22297 417.685833 
L 774.379773 456.729831 
M 680.484948 500.646366 
L 676.82332 510.071237 
L 674.796202 515.381974 
L 672.843374 520.986914 
L 670.188994 529.490108 
L 666.965575 540.616702 
L 665.319168 543.114933 
M 680.484948 500.646366 
L 684.034774 494.283115 
L 688.498617 486.604051 
L 689.585565 484.473604 
L 690.576751 482.251142 
L 691.442688 479.940818 
L 692.170658 477.552055 
L 692.765941 475.097818 
L 693.655095 470.054408 
L 694.385331 464.942052 
L 695.89869 458.63546 
M 680.484948 500.646366 
L 683.553934 495.138681 
L 688.284436 487.043628 
L 689.418789 484.853075 
L 690.461526 482.584286 
L 692.245986 477.887237 
L 695.227374 468.985442 
L 696.779332 465.213974 
L 699.22225 460.038228 
L 699.502408 460.407104 
M 680.484948 500.646366 
L 684.794408 493.145652 
L 688.6267 486.949244 
L 694.179323 478.548 
L 702.358598 466.722288 
L 703.694692 464.810392 
L 703.67722 462.588188 
M 680.484948 500.646366 
L 684.776004 493.302563 
L 688.518423 487.282336 
L 693.729726 479.298669 
L 700.106917 469.944591 
L 703.836052 464.59989 
L 705.998541 463.86271 
M 709.619343 521.041193 
L 708.124267 519.684756 
M 709.619343 521.041193 
L 729.878798 498.50361 
L 738.735547 488.550418 
L 739.759123 488.32159 
M 780.009128 508.884419 
L 778.93653 534.412169 
L 778.248531 553.90663 
L 776.173575 596.303297 
L 773.656285 655.960223 
L 771.353075 711.424413 
L 771.378573 711.424413 
M 728.875354 695.24029 
L 726.448332 671.101133 
L 722.755271 633.576634 
L 717.153595 577.313996 
L 714.4892 549.839798 
L 713.682426 543.070472 
L 711.106889 523.589885 
L 710.232546 513.520252 
L 709.051096 498.82597 
L 707.815257 487.282333 
L 706.36432 476.443396 
L 704.346111 463.211678 
L 705.998541 463.86271 
M 779.140752 561.340739 
L 778.155588 556.303038 
L 776.857394 551.011623 
L 775.223564 545.447907 
L 772.45691 536.845827 
L 771.244973 533.728083 
M 779.140752 561.340739 
L 776.925915 568.671053 
L 774.561883 575.863967 
L 772.551463 577.15575 
M 779.140752 561.340739 
L 781.740068 566.284504 
L 783.610381 569.377676 
L 785.619755 572.222734 
L 793.23755 582.124513 
M 790.838523 572.254522 
L 785.346322 576.90177 
L 784.421512 577.465668 
M 829.963734 548.114713 
L 825.441754 544.380417 
L 820.529867 540.751672 
L 811.766052 534.72642 
L 792.475262 521.619691 
L 784.036109 515.524493 
L 778.851109 512.089593 
L 749.790781 493.458929 
L 744.844798 490.351543 
L 739.889012 486.895133 
L 729.599491 479.232536 
L 726.865944 477.525356 
M 829.963734 548.114713 
L 832.334595 546.727955 
L 834.926561 545.432891 
L 839.233391 543.615489 
L 847.121494 540.656449 
L 858.949263 536.501695 
L 862.387956 535.541924 
L 865.718582 534.822226 
L 870.527727 534.060522 
L 872.11648 533.829754 
L 872.11648 533.897656 
M 642.698892 581.427247 
L 646.081302 576.450669 
L 648.435028 572.629278 
L 653.324272 564.07315 
L 662.785134 547.383236 
L 665.319168 543.114933 
M 754.021988 195.264971 
L 756.995323 202.359749 
L 760.107119 210.438931 
L 764.338919 222.252719 
L 771.033134 241.667706 
L 776.584072 258.462859 
L 788.914115 296.163637 
L 795.577331 315.577417 
L 802.888561 337.042107 
L 814.225922 370.973643 
L 816.560517 378.329109 
M 790.929824 572.589614 
L 789.989317 572.374238 
L 789.072322 571.945533 
L 788.175834 571.279046 
L 787.29027 570.395659 
L 785.5188 568.12551 
L 783.764269 565.368707 
L 780.331046 559.153798 
L 779.509501 557.447044 
L 778.799081 555.481859 
L 775.215869 544.496791 
L 772.582187 536.953326 
L 771.244973 533.728083 
M 790.929824 572.589614 
L 788.291821 573.917998 
L 785.421321 574.903464 
L 782.365824 575.528468 
L 779.211963 575.8905 
L 774.418456 576.223353 
L 772.551463 577.15575 
M 790.929824 572.589614 
L 791.763554 577.854051 
L 793.23755 582.124513 
M 755.469207 195.727946 
L 758.689967 205.547052 
L 766.93798 229.510018 
L 773.115788 247.667882 
L 780.905394 271.470069 
L 792.033771 305.540202 
L 802.406495 336.020682 
L 807.49971 351.250756 
L 816.559964 377.541085 
L 816.560517 378.329109 
M 749.522899 590.446722 
L 750.545358 586.367403 
L 751.894902 582.23758 
L 753.581554 577.94535 
L 762.042441 557.541244 
L 771.420352 533.919258 
L 771.244973 533.728083 
M 749.522899 590.446722 
L 755.357541 589.168195 
L 768.636064 586.474093 
L 772.187767 585.303796 
L 775.8119 583.652038 
L 779.44299 581.823038 
L 781.230118 581.054122 
L 782.984279 580.49718 
L 784.700441 580.202412 
L 786.379086 580.176839 
L 788.025767 580.385486 
L 791.262273 581.22319 
L 792.874559 581.686186 
L 792.963865 580.862296 
M 749.522899 590.446722 
L 761.741243 587.572865 
L 763.310402 587.025317 
L 764.851233 586.362153 
L 767.845687 584.694313 
L 772.219641 581.737699 
L 772.551463 577.15575 
M 749.522899 590.446722 
L 753.840431 589.492142 
L 760.140643 588.384161 
L 766.706919 587.270009 
L 769.991355 586.502196 
L 771.637873 585.983805 
L 773.292828 585.34387 
L 776.637377 583.70105 
L 781.691284 580.987016 
L 783.361493 580.254402 
L 785.018324 579.661233 
L 788.297622 578.824906 
L 791.558168 578.178424 
L 793.23755 582.124513 
M 693.918691 508.620046 
L 691.984635 510.146732 
L 689.823936 512.438602 
L 687.397023 515.531349 
L 683.394944 521.210793 
L 679.134802 527.225058 
L 676.206352 530.990749 
L 673.278932 534.40077 
L 668.973529 538.921262 
L 666.134581 541.769585 
L 665.319168 543.114933 
M 693.918691 508.620046 
L 695.340661 505.57854 
L 697.737494 499.766448 
L 703.545163 484.526234 
L 710.199458 466.501523 
L 710.158916 466.261659 
M 693.918691 508.620046 
L 696.952058 505.391582 
L 700.779009 501.738686 
L 708.280256 494.866611 
L 720.906457 483.562341 
L 726.865944 477.525356 
M 737.527776 379.947469 
L 734.330738 391.676904 
L 730.598892 406.835723 
L 726.738366 421.897429 
L 721.784163 440.330707 
L 718.435868 452.825652 
L 711.158074 481.404108 
L 707.722145 493.707918 
L 704.5629 506.523264 
L 700.562645 523.634786 
L 695.277569 546.510745 
L 690.393972 566.251243 
L 672.980123 635.416011 
L 663.740989 671.896638 
L 658.759134 692.302979 
L 657.753638 696.477043 
L 656.697637 699.883594 
M 756.914835 196.195861 
L 757.902256 200.505211 
L 759.161474 205.175646 
L 761.488469 212.769658 
L 766.036437 226.601142 
L 775.913564 256.359091 
L 787.7936 293.074212 
L 793.123901 308.753893 
L 800.605794 330.585505 
L 816.560517 378.329109 
M 710.158916 466.261659 
L 713.500082 460.388805 
L 715.709835 455.918908 
L 717.872592 450.772554 
L 721.039431 442.180658 
L 724.200134 433.728286 
L 727.382743 425.659448 
L 729.246156 425.901493 
M 772.551463 577.15575 
L 784.789803 577.059656 
L 784.421512 577.465668 
M 793.23755 582.124513 
L 791.579257 579.967077 
L 790.686434 579.10253 
L 789.750248 578.390885 
L 787.779186 577.323732 
L 785.75607 576.445742 
L 784.421512 577.465668 
M 726.865944 477.525356 
L 733.337075 482.268293 
L 739.512507 486.536843 
L 749.243554 492.927643 
L 761.891093 501.164371 
L 767.375141 504.698241 
L 778.184162 511.501594 
L 784.863565 516.106626 
L 801.231874 527.583753 
L 811.22204 534.434988 
L 819.686278 539.873126 
L 829.367863 545.941668 
L 828.846274 544.883722 
M 699.502408 460.407104 
L 701.390263 457.087914 
L 703.578909 453.744293 
L 707.41767 448.103539 
L 708.773786 445.850083 
L 710.140054 443.357789 
L 712.871548 437.6841 
L 715.585325 431.286785 
L 719.635118 421.089575 
L 719.989421 420.917469 
M 759.835722 446.874543 
L 764.834837 440.917047 
L 773.63014 430.140741 
L 782.664748 419.361673 
L 788.164593 412.574246 
M 749.829049 591.871252 
L 750.155273 582.781078 
L 750.147135 576.177036 
L 749.864881 569.074907 
L 749.066467 557.542173 
L 747.645805 537.631346 
L 746.83571 522.814694 
L 743.013922 441.804877 
L 741.639553 413.040171 
L 740.613759 390.346756 
L 740.263392 381.320007 
M 749.829049 591.871252 
L 749.967352 592.54088 
M 749.829049 591.871252 
L 750.598903 579.194884 
L 751.402931 568.889411 
L 752.452576 558.259367 
L 753.774362 547.614222 
L 757.14064 522.116562 
L 760.584346 491.743572 
L 762.900624 470.72268 
L 766.006431 441.320046 
L 772.529854 382.19098 
L 774.225745 370.467244 
L 775.825483 359.567693 
L 776.687014 352.519086 
L 777.771367 341.367043 
L 780.959914 303.425399 
L 781.004647 302.223821 
M 788.164593 412.574246 
L 794.84897 404.392389 
L 810.744858 384.935409 
L 815.715252 378.558968 
L 816.560517 378.329109 
M 719.989421 420.917469 
L 721.472646 416.466887 
L 723.185251 412.038666 
L 725.161008 407.754775 
L 728.471601 401.396441 
L 732.063699 394.771956 
L 734.649241 390.356489 
L 738.748901 383.884769 
L 740.131825 381.7405 
L 740.263392 381.320007 
M 719.989421 420.917469 
L 722.029979 432.506554 
L 728.71147 471.783219 
L 734.487753 503.828282 
L 742.219357 546.269252 
L 743.762179 553.376209 
L 746.811946 566.824608 
L 747.997883 573.29573 
L 748.89827 579.642706 
L 749.982514 589.052195 
L 749.967352 592.54088 
M 828.846274 544.883722 
L 832.960485 544.321837 
L 835.893864 543.760973 
L 840.549026 542.592485 
L 847.030993 540.61566 
L 853.522985 538.415845 
L 858.303561 536.781981 
L 861.561457 535.865867 
L 864.970016 535.164861 
L 870.316684 534.408743 
L 872.11648 534.17838 
L 870.775529 530.020467 
M 740.263392 381.320007 
L 746.109565 369.993618 
L 750.983835 361.034024 
L 756.091773 352.245464 
L 758.646118 347.951049 
L 760.576026 341.742293 
M 749.967352 592.54088 
L 752.062424 591.232621 
L 754.474906 590.071599 
L 757.230757 589.094584 
L 760.258683 588.281358 
L 770.291318 585.980485 
L 773.775938 584.687351 
L 777.188957 582.963587 
L 782.002616 580.186726 
L 783.5053 579.507288 
L 784.957966 579.079592 
L 786.365564 578.941997 
L 787.735121 579.091837 
L 789.075137 579.487255 
L 791.704839 580.715473 
L 793.014417 581.375494 
L 793.556469 583.654506 
M 749.967352 592.54088 
L 750.480639 582.333763 
L 751.552071 567.102522 
L 752.320482 554.731385 
L 752.80188 542.269976 
L 754.688194 477.856287 
L 755.338975 461.526707 
L 758.251123 398.715352 
L 758.847276 382.446816 
L 759.099865 370.820667 
L 759.142015 360.279197 
L 759.005823 347.549633 
L 760.576026 341.742293 
M 760.576026 341.742293 
L 765.995627 330.951896 
L 769.894938 323.693054 
L 778.143565 308.593803 
L 780.833765 303.565134 
L 781.004647 302.223821 
M 771.244973 533.728083 
L 774.255412 457.087985 
L 774.379773 456.729831 
M 708.124267 519.684756 
L 707.12443 519.671864 
L 706.096206 519.797977 
L 705.026919 520.09913 
L 703.904594 520.589301 
L 702.719563 521.264905 
L 700.142742 523.1055 
L 694.147107 527.840605 
L 690.79949 530.017559 
L 689.074425 530.926937 
L 685.583019 532.38964 
L 678.673007 534.828573 
L 675.347868 536.309253 
L 672.160867 538.042598 
L 667.575062 540.932089 
L 666.060849 541.915551 
L 665.319168 543.114933 
M 708.124267 519.684756 
L 708.657124 520.163482 
M 671.688832 496.498201 
L 678.907128 481.964659 
L 691.541023 457.644142 
L 689.18511 455.597601 
L 689.18511 455.597601 
" clip-path="url(#pfe39eb1a51)" style="fill: none; stroke: #1f77b4; stroke-opacity: 0.8; stroke-width: 1.5; stroke-linecap: square"/>
   </g>
   <g id="line2d_2">
    <path d="M 789.785279 460.152276 
L 785.953737 450.163744 
L 781.254852 438.613568 
L 774.624477 422.98347 
L 769.204082 410.637816 
L 765.378538 402.365211 
L 760.688442 392.779127 
L 759.541355 390.469143 
L 757.978867 393.373105 
M 789.785279 460.152276 
L 793.051803 466.242763 
L 796.519393 473.266264 
L 802.743788 486.688423 
L 820.489504 525.279777 
L 821.508031 526.7558 
M 792.48081 578.734939 
L 786.822081 579.658758 
L 781.952962 580.22941 
L 774.934982 580.822852 
L 771.841729 580.310508 
M 792.48081 578.734939 
L 793.201285 581.954688 
M 792.48081 578.734939 
L 791.602274 575.664679 
L 790.413671 570.727953 
M 728.949509 695.133222 
L 729.330354 690.059319 
L 729.409872 684.903281 
L 729.141866 676.663906 
L 728.232877 653.811983 
L 727.807785 637.032195 
L 726.61478 568.902032 
L 726.664946 561.502809 
L 727.229682 540.754281 
L 726.974626 534.666818 
L 726.468034 528.93429 
L 725.697029 522.265332 
M 741.436059 565.635508 
L 740.566874 557.677683 
L 739.844133 547.777489 
L 737.626337 511.590809 
L 736.363236 492.089206 
L 733.619477 444.456104 
L 727.027212 348.95817 
L 725.656004 333.785222 
L 726.11993 326.731047 
M 741.436059 565.635508 
L 741.644221 566.113074 
M 741.436059 565.635508 
L 743.956124 564.811563 
L 746.763976 563.719198 
L 751.568793 561.598906 
L 762.412403 556.730164 
L 779.683408 549.146576 
L 782.181412 547.780678 
M 741.540373 565.87419 
L 740.613034 556.570262 
L 739.874376 546.294979 
L 737.882376 514.979079 
L 736.269332 491.866839 
L 732.43631 427.378358 
L 726.740385 346.237428 
L 725.58 334.046401 
L 726.11993 326.731047 
M 741.540373 565.87419 
L 741.644221 566.113074 
M 741.540373 565.87419 
L 745.128163 564.580019 
L 749.424392 562.702286 
L 762.757796 556.601305 
L 779.719482 549.215465 
L 782.320498 548.098919 
M 674.497455 788.332646 
L 674.911831 780.573274 
L 671.95743 778.329721 
M 674.497455 788.332646 
L 673.697747 779.836622 
L 673.206593 771.49534 
L 673.100831 763.466421 
L 673.326051 755.78007 
L 673.951974 744.577641 
L 674.46284 740.677683 
M 741.644221 566.113074 
L 740.706207 557.664305 
L 739.966125 548.152611 
L 739.283925 538.350448 
L 738.581791 532.031483 
L 737.517346 525.853487 
L 736.124092 519.585338 
L 731.346766 499.404823 
L 729.931343 492.546086 
L 728.716647 485.749488 
L 727.711137 479.005843 
L 726.499118 468.96716 
L 725.336485 459.174336 
L 724.399247 452.876886 
L 722.678736 443.620625 
L 720.903971 434.233666 
L 719.403963 424.503452 
L 717.921976 414.729429 
L 713.697958 389.369518 
L 711.659228 374.536108 
L 710.912486 368.896162 
L 710.662146 368.445316 
M 741.644221 566.113074 
L 745.182647 564.69721 
L 749.453161 562.718706 
L 760.141847 557.662031 
L 767.81319 554.321965 
L 779.632347 549.407327 
L 782.458961 548.417432 
M 711.456994 368.736663 
L 706.553522 383.135603 
L 701.164202 399.717449 
L 697.581027 411.039283 
M 711.456994 368.736663 
L 714.491543 359.835801 
L 717.21719 352.388595 
L 726.518852 327.743458 
L 727.118272 327.097952 
M 727.118272 327.097952 
L 727.118436 334.801417 
L 727.320005 343.907007 
L 727.935955 358.605879 
L 728.465811 370.623787 
L 728.614177 378.600299 
L 728.509025 386.354731 
L 728.007008 397.580025 
L 726.548702 421.868692 
L 725.711897 435.014255 
L 725.501439 441.834525 
L 725.526243 449.123953 
L 725.80042 456.83327 
L 726.3266 464.700702 
L 727.581044 479.622321 
L 727.758916 486.277239 
L 727.523113 492.626563 
L 726.012587 516.020952 
L 725.687656 522.977989 
L 725.697029 522.265332 
M 727.118272 327.097952 
L 716.34142 354.569882 
L 713.046174 363.841444 
L 707.787181 379.50028 
L 702.357317 395.671273 
L 700.085108 401.717159 
L 698.897146 404.502836 
L 696.414779 409.496035 
L 690.249881 420.342842 
L 687.993613 425.110853 
L 685.780113 430.464998 
L 682.41775 439.37652 
L 675.682837 458.096893 
L 671.483528 470.335641 
L 664.961995 490.165031 
L 664.078918 492.87493 
L 662.844836 493.081257 
M 749.494777 590.319554 
L 747.69872 583.720014 
L 745.765151 577.446159 
L 742.68382 568.558897 
L 741.643649 565.636068 
L 739.975693 560.543474 
M 749.494777 590.319554 
L 750.861395 588.722375 
L 752.295847 587.258893 
L 753.819793 585.964041 
L 755.447085 584.852796 
L 757.183925 583.924684 
L 759.032055 583.167324 
L 760.990834 582.559255 
L 763.057049 582.073649 
L 767.483137 581.364615 
L 772.211481 580.88096 
L 779.416653 580.434748 
L 788.320727 580.2075 
L 792.569876 580.158264 
L 792.926369 580.692739 
M 749.494777 590.319554 
L 751.312058 587.167095 
L 753.397433 584.419563 
L 756.806291 580.727539 
L 757.458213 580.938889 
M 725.697029 522.265332 
L 730.258793 537.868244 
L 732.161663 543.255483 
L 734.26801 548.275096 
L 736.50813 552.873605 
L 739.969213 559.367817 
L 739.975693 560.543474 
M 725.697029 522.265332 
L 723.899249 528.913489 
L 720.737477 539.502149 
L 704.270739 593.266309 
L 703.945633 595.059527 
M 725.697029 522.265332 
L 729.886075 537.350999 
L 733.657995 552.355398 
L 733.305182 552.71296 
M 672.098688 789.098173 
L 671.95743 778.329721 
M 672.098688 789.098173 
L 671.96599 777.909016 
L 672.047026 770.711716 
L 672.334734 763.852642 
L 672.812619 757.334194 
L 674.066788 744.866227 
L 674.46284 740.677683 
M 739.975693 560.543474 
L 747.563971 567.840134 
L 748.868473 570.866649 
M 739.975693 560.543474 
L 747.471859 582.36063 
M 793.201285 581.954688 
L 790.22538 581.290026 
L 787.195106 580.881679 
L 784.17086 580.750313 
L 779.694238 580.887096 
L 778.207234 580.956455 
L 775.31028 581.324687 
M 793.201285 581.954688 
L 786.31175 579.822454 
L 784.939254 579.415661 
L 784.10117 577.905831 
M 793.201285 581.954688 
L 790.099605 581.326516 
L 786.785156 580.898105 
L 783.240716 580.663752 
L 777.490512 580.565871 
L 769.097235 580.691865 
L 762.647983 581.000626 
L 756.365663 581.556532 
L 748.263806 582.519366 
L 747.563583 582.681519 
M 734.141375 329.789495 
L 733.026609 330.149348 
L 731.980331 330.767353 
L 731.030647 331.731747 
L 730.198005 333.090503 
L 729.491489 334.847066 
L 728.90352 336.961359 
L 727.954355 341.942185 
L 726.983966 347.281993 
L 726.38305 349.892454 
L 725.674504 352.416964 
L 724.854078 354.85647 
L 722.911083 359.55616 
L 720.669608 364.147744 
L 717.068847 370.990254 
L 717.176246 370.918122 
M 734.141375 329.789495 
L 735.634651 334.534532 
L 737.879374 342.694462 
L 740.080288 351.609959 
L 742.126661 360.803492 
L 746.010907 380.219697 
L 749.984263 399.021139 
L 757.041288 430.643566 
L 761.960946 452.145076 
L 766.600861 472.247904 
L 772.565927 498.60732 
L 776.90439 517.363977 
L 782.072324 541.254844 
L 784.488692 550.646492 
L 786.130788 556.706338 
L 785.900052 556.952487 
M 734.141375 329.789495 
L 737.556054 338.23848 
L 739.576215 342.526497 
L 740.715279 344.607664 
L 741.950514 346.611202 
L 743.28057 348.5233 
L 746.18298 352.089546 
L 755.784368 362.79495 
L 759.006848 366.931469 
L 765.396446 375.731028 
L 775.935326 390.710393 
L 783.062954 401.071601 
L 798.965942 424.460026 
L 818.579628 452.807909 
L 834.379531 475.296511 
L 842.143767 486.665286 
L 864.566367 520.264914 
L 868.952185 526.678176 
L 869.848523 527.447322 
M 734.141375 329.789495 
L 739.890919 342.987074 
L 750.666341 367.749181 
L 760.950352 391.586729 
L 772.452334 417.889912 
L 791.071731 460.741378 
L 819.587086 523.625825 
L 826.99126 540.487212 
L 828.259691 543.24926 
M 734.141375 329.789495 
L 738.534346 340.107005 
L 755.161415 378.182436 
L 763.083003 396.58975 
L 789.652013 457.485708 
L 820.624301 526.088295 
L 828.773649 544.679165 
M 669.68933 789.829681 
L 671.949813 778.018603 
L 671.95743 778.329721 
M 669.68933 789.829681 
L 670.486732 780.826718 
L 672.076226 761.384926 
L 673.548307 748.033208 
L 674.46284 740.677683 
M 700.531522 513.388883 
L 701.580519 511.935131 
L 702.580748 510.29122 
L 703.50851 508.397565 
L 704.345055 506.230511 
L 705.078349 503.796386 
L 705.702893 501.117149 
L 706.218649 498.214931 
L 706.630078 495.101079 
L 707.17621 488.247707 
L 707.438888 480.618278 
L 707.529532 468.146808 
L 707.358842 439.069151 
L 707.074835 423.773433 
L 706.893353 416.247235 
L 708.511429 415.489573 
M 700.531522 513.388883 
L 708.366862 519.39358 
L 708.463655 519.989069 
M 700.531522 513.388883 
L 703.031483 510.382901 
L 706.903507 505.271391 
L 714.409216 495.185194 
L 724.906816 481.648186 
L 727.573176 478.065613 
M 700.531522 513.388883 
L 703.01316 510.525303 
L 705.547503 507.277217 
L 716.350981 492.698032 
L 724.657148 482.189745 
L 726.812881 479.487672 
L 727.710857 478.171441 
M 747.471859 582.36063 
L 756.430207 580.858569 
L 757.458213 580.938889 
M 747.563583 582.681519 
L 753.357049 581.940505 
L 762.841773 581.048961 
L 771.841729 580.310508 
M 747.563583 582.681519 
L 751.867294 582.063849 
L 756.803443 581.575323 
L 764.352506 581.07352 
L 770.313366 580.724816 
L 774.297613 580.223739 
L 776.259089 579.795094 
L 778.174817 579.220843 
L 780.026805 578.497857 
L 781.804356 577.63535 
L 783.507273 576.652087 
L 786.738822 574.429992 
L 789.877719 572.076137 
L 790.413671 570.727953 
M 667.269861 790.527023 
L 671.95743 778.329721 
M 667.269861 790.527023 
L 668.583825 784.047843 
L 669.713968 777.340306 
L 671.169999 766.853645 
L 674.46284 740.677683 
M 790.413671 570.727953 
L 785.279481 579.208961 
L 784.10117 577.905831 
M 717.176246 370.918122 
L 710.496859 380.345983 
L 708.064895 384.569089 
L 705.696226 389.457333 
L 703.436265 394.821931 
L 700.234455 403.2989 
L 698.152792 409.039461 
L 697.581027 411.039283 
M 785.900052 556.952487 
L 813.500101 546.878526 
L 819.413472 544.952813 
L 827.279358 542.638017 
L 827.575066 541.390608 
M 664.840767 791.19006 
L 671.95743 778.329721 
M 664.840767 791.19006 
L 666.939741 785.732558 
L 667.860313 782.84928 
L 668.683726 779.808243 
L 669.417126 776.584674 
L 670.669989 769.629592 
L 672.209108 758.648898 
L 674.46284 740.677683 
M 771.737418 710.82967 
L 770.282986 707.244664 
L 768.959984 702.980405 
L 767.755715 698.056926 
L 766.096512 689.963937 
L 764.175237 680.139873 
M 771.737418 710.82967 
L 770.37186 706.605491 
L 769.386173 703.074136 
M 771.647925 710.978487 
L 770.339536 706.691657 
L 769.386173 703.074136 
M 771.647925 710.978487 
L 769.28115 708.792685 
L 766.622491 706.697518 
L 763.583635 704.679266 
L 760.198685 702.702972 
L 754.811144 699.765477 
L 754.505097 700.225288 
M 771.647925 710.978487 
L 774.524053 706.022226 
M 771.647925 710.978487 
L 774.354298 706.325221 
M 771.647925 710.978487 
L 771.468502 711.275859 
M 771.647925 710.978487 
L 771.558286 711.127217 
M 869.848523 527.447322 
L 876.653833 524.805356 
L 900.086936 516.243473 
L 911.623277 512.155209 
M 716.322511 323.333176 
L 712.055126 336.834182 
L 701.720577 370.46368 
L 692.729513 400.067266 
L 690.556731 408.200198 
L 686.244372 425.339142 
L 683.52632 434.679734 
L 680.49517 444.130818 
L 675.990242 457.314846 
L 669.042525 477.584036 
L 663.991167 492.847496 
L 663.950847 493.469452 
M 828.259691 543.24926 
L 834.803578 541.357137 
L 844.304497 538.290082 
L 852.710076 535.344593 
L 858.7261 532.948444 
L 864.122918 530.525891 
L 869.155848 528.121508 
L 870.071629 528.059112 
M 656.737002 699.865288 
L 670.51659 669.04528 
L 672.4997 664.813259 
M 662.402535 791.818659 
L 670.346924 780.456323 
L 671.944581 778.198615 
L 671.95743 778.329721 
M 662.402535 791.818659 
L 665.123449 787.381309 
L 666.329117 785.12257 
L 667.396451 782.812721 
L 668.314552 780.433417 
L 669.085648 777.97161 
L 669.723728 775.420865 
L 670.698756 770.04613 
L 671.812601 761.434877 
L 673.679932 747.010951 
L 674.46284 740.677683 
M 828.773649 544.679165 
L 832.963016 542.798732 
L 838.098591 540.816128 
L 853.018781 535.30886 
L 859.478437 532.591017 
L 867.208669 529.015312 
L 869.082648 528.128558 
L 870.688379 529.774997 
M 748.868473 570.866649 
L 748.814478 572.17592 
L 748.917997 573.472735 
L 749.222755 574.72508 
L 749.745997 575.899575 
L 750.481766 576.973339 
L 751.405727 577.94077 
L 752.480072 578.814272 
L 754.888549 580.391595 
L 756.120022 581.162434 
L 757.458213 580.938889 
M 683.977029 784.933512 
L 679.37066 782.71772 
L 674.878604 780.707569 
L 671.95743 778.329721 
M 683.977029 784.933512 
L 682.36167 783.575232 
L 680.803462 782.068889 
L 679.333991 780.361431 
L 677.985977 778.420889 
L 676.790993 776.232636 
L 675.775379 773.796024 
L 674.955793 771.125056 
L 674.336523 768.249152 
L 673.909612 765.209661 
L 673.657295 762.05217 
L 673.555298 758.818062 
L 673.688978 752.234749 
L 674.279341 742.268403 
L 674.46284 740.677683 
M 733.305182 552.71296 
L 734.426065 554.467869 
L 735.476848 556.436555 
L 736.430211 558.669889 
L 737.269153 561.181565 
L 737.989201 563.956287 
L 738.59867 566.958612 
L 739.571531 573.443992 
L 740.898481 583.787419 
M 674.46284 740.677683 
L 672.898462 732.359986 
L 671.767257 725.869972 
L 671.564073 723.82645 
M 674.46284 740.677683 
L 675.610567 745.595359 
L 677.056109 750.651586 
L 679.380093 758.618318 
L 682.720694 771.613613 
L 683.551051 773.711267 
L 684.508418 775.566072 
L 685.593094 777.193433 
L 686.787097 778.632521 
L 689.370238 781.180057 
L 690.682294 782.419137 
L 693.249127 781.003545 
M 674.46284 740.677683 
L 673.661774 746.542943 
L 673.054764 752.97442 
L 672.912098 756.330825 
L 672.934692 759.680201 
L 673.157986 762.931623 
L 673.601945 766.002635 
L 674.268708 768.834135 
L 675.143872 771.399793 
L 676.199499 773.708679 
L 677.397534 775.801436 
L 680.03814 779.604548 
L 681.384072 781.465974 
L 679.261294 786.700153 
M 674.46284 740.677683 
L 675.627575 745.616387 
L 677.088166 750.688388 
L 679.433273 758.515437 
L 680.739061 763.815585 
L 681.931317 768.892578 
L 682.599095 771.240108 
L 683.366542 773.426349 
L 684.246972 775.45286 
L 685.230447 777.342915 
L 687.385961 780.880001 
L 688.483534 782.623034 
L 690.95219 782.035143 
M 674.46284 740.677683 
L 673.416969 748.298119 
L 672.887893 754.243409 
L 672.736885 757.455149 
L 672.693026 760.772972 
L 672.772599 764.152695 
L 672.980553 767.557971 
L 673.736019 774.363523 
L 675.298649 784.520894 
L 676.88515 787.533253 
M 674.46284 740.677683 
L 675.160467 744.778646 
L 676.30056 749.187373 
L 679.319839 759.02073 
L 681.309049 766.928229 
L 682.606133 771.858423 
L 684.050777 776.306499 
L 686.401249 782.486757 
L 688.640886 783.034135 
M 674.46284 740.677683 
L 673.320586 749.286036 
L 671.665696 765.121005 
L 671.172809 768.147081 
L 670.547725 771.046011 
L 669.768742 773.81481 
L 668.829455 776.463044 
L 667.740404 779.008471 
L 665.227763 783.884504 
L 662.53964 788.650265 
L 659.955652 792.412694 
M 674.46284 740.677683 
L 675.696705 745.794858 
L 677.165521 750.918162 
L 679.460144 758.705662 
L 680.748629 764.026333 
L 681.80609 769.366581 
L 683.558213 779.883583 
L 683.974878 782.496823 
L 686.315677 784.000323 
M 674.46284 740.677683 
L 673.39373 746.125756 
L 672.076983 751.775106 
L 669.976123 760.460553 
L 666.902516 774.440991 
L 666.156265 777.002593 
L 665.311809 779.464554 
L 663.344301 784.129296 
L 660.02944 790.801467 
L 657.500608 792.972046 
M 674.46284 740.677683 
L 673.019269 747.242131 
L 670.023738 760.03461 
L 666.974945 774.598635 
L 666.225778 777.146141 
L 665.353097 779.549611 
L 664.346288 781.817585 
L 663.211396 783.967429 
L 660.651821 788.015347 
L 657.939643 791.933159 
L 655.037895 793.496603 
M 674.46284 740.677683 
L 673.717404 746.813334 
L 673.151284 753.334086 
L 673.011788 756.672325 
L 673.020505 759.974934 
L 673.210093 763.164235 
L 673.599152 766.170866 
L 674.189921 768.946495 
L 674.96947 771.471735 
L 675.912517 773.758206 
L 676.984585 775.845071 
L 679.350271 779.666706 
L 680.556334 781.540579 
L 681.625411 785.833515 
M 674.46284 740.677683 
L 673.321632 746.159385 
L 671.208205 754.708332 
L 669.801072 760.500888 
L 668.618488 766.192784 
L 667.01532 774.122196 
L 666.389279 776.519709 
L 665.655609 778.773632 
L 664.784886 780.880845 
L 663.759112 782.845278 
L 662.574988 784.678179 
L 661.244807 786.397736 
L 658.260922 789.597009 
L 655.107772 792.672628 
L 652.568007 793.98626 
M 693.249127 781.003545 
L 689.389225 781.244386 
L 685.41603 781.282221 
L 681.309955 781.114007 
L 675.021413 780.672162 
L 671.95743 778.329721 
M 659.955652 792.412694 
L 671.854147 778.621025 
L 671.95743 778.329721 
M 757.458213 580.938889 
L 763.120567 580.911871 
L 771.042064 580.660037 
L 775.31028 581.324687 
M 726.262627 326.783253 
L 723.695185 334.31409 
L 719.827322 344.777625 
L 714.462485 359.178165 
L 711.09287 368.450659 
L 710.662146 368.445316 
M 726.262627 326.783253 
L 728.717118 328.463512 
L 729.945198 329.481095 
L 731.157477 330.673341 
L 732.338741 332.084584 
L 733.476864 333.747749 
L 734.568262 335.665975 
L 736.65216 340.102121 
L 739.80329 347.252572 
L 742.058234 351.890816 
L 750.832641 369.072773 
L 753.438913 374.790487 
L 757.326866 384.016323 
L 759.910401 390.344204 
L 757.978867 393.373105 
M 775.31028 581.324687 
L 771.841729 580.310508 
M 642.698892 581.427247 
L 645.313235 567.979323 
L 646.971674 557.990062 
L 648.466174 547.061515 
L 649.830007 535.856935 
L 649.636395 535.596525 
M 642.698892 581.427247 
L 645.941023 564.148845 
L 647.556444 553.881835 
L 648.979805 543.194757 
L 649.87804 536.022819 
L 653.452716 537.086259 
M 649.636395 535.596525 
L 653.448188 524.67577 
L 660.6266 503.520493 
L 664.017665 493.002424 
L 663.950847 493.469452 
M 771.841729 580.310508 
L 777.727351 580.023285 
L 785.098791 579.424513 
L 784.10117 577.905831 
M 740.898481 583.787419 
L 742.930218 592.708734 
L 747.035652 609.130677 
L 748.559101 615.557212 
M 748.559101 615.557212 
L 751.550448 628.440006 
L 756.173613 647.448467 
L 756.325333 647.791101 
M 756.325333 647.791101 
L 764.175237 680.139873 
M 690.95219 782.035143 
L 682.177662 781.438888 
L 675.768799 780.891574 
L 671.95743 778.329721 
M 764.175237 680.139873 
L 766.669718 691.520975 
M 657.500608 792.972046 
L 664.865227 785.756966 
L 672.136 778.375973 
L 671.95743 778.329721 
M 766.669718 691.520975 
L 767.428246 705.153828 
L 769.386173 703.074136 
M 769.386173 703.074136 
L 766.939018 705.653223 
M 766.939018 705.653223 
L 766.348205 705.553765 
L 764.975146 704.946851 
L 759.766984 702.244457 
L 754.721879 699.558894 
L 754.505097 700.225288 
M 766.939018 705.653223 
L 770.71496 709.081363 
L 774.524053 706.022226 
M 766.939018 705.653223 
L 770.814027 709.140614 
L 774.354298 706.325221 
M 766.939018 705.653223 
L 771.397549 710.187876 
L 771.468502 711.275859 
M 766.939018 705.653223 
L 770.705014 709.101039 
L 771.558286 711.127217 
M 754.505097 700.225288 
L 750.842856 697.821821 
L 746.482716 695.29929 
L 739.954106 691.817474 
L 733.30277 688.381456 
L 733.367667 688.31261 
M 642.400642 750.625033 
L 660.117523 734.548988 
L 667.771085 728.025866 
L 671.601657 724.814904 
L 671.564073 723.82645 
M 642.400642 750.625033 
L 650.176824 794.44845 
L 650.219691 794.418262 
M 642.400642 750.625033 
L 648.57175 785.493749 
L 650.175522 794.44845 
L 650.048681 794.44845 
M 774.524053 706.022226 
L 771.17912 705.508593 
L 767.799703 704.709246 
L 764.31476 703.549135 
L 760.704372 702.048899 
L 755.174769 699.402076 
L 735.205139 689.467837 
L 733.450019 688.618467 
L 733.367667 688.31261 
M 688.640886 783.034135 
L 674.929551 780.505889 
L 671.95743 778.329721 
M 774.354298 706.325221 
L 770.991201 705.663434 
L 767.569194 704.712467 
L 764.054107 703.440158 
L 760.440081 701.880931 
L 754.924018 699.221888 
L 742.130635 692.77773 
L 733.253327 688.022873 
L 733.367667 688.31261 
M 655.037895 793.496603 
L 658.563015 790.855351 
L 662.005592 788.057713 
L 665.36921 785.078733 
L 671.975565 778.797763 
L 671.95743 778.329721 
M 672.4997 664.813259 
L 679.053177 650.659541 
L 686.576413 633.629377 
L 688.265847 629.78319 
M 706.411842 518.180677 
L 706.9687 512.474835 
L 707.382259 506.298999 
L 707.638265 499.708824 
L 707.765857 488.969623 
L 707.639171 472.67725 
L 707.334048 438.756527 
L 707.030191 416.288461 
L 708.511429 415.489573 
M 706.411842 518.180677 
L 708.463655 519.989069 
M 706.411842 518.180677 
L 709.765084 515.825093 
L 713.134622 513.160586 
L 716.578043 510.093912 
L 720.14838 506.613024 
L 725.816967 500.717698 
L 735.906057 489.869684 
L 735.482456 484.50757 
M 706.411842 518.180677 
L 709.663527 515.871143 
L 713.141072 513.040746 
L 716.904544 509.592515 
L 722.864821 503.666604 
L 735.93179 490.300818 
L 735.416719 484.450846 
M 706.411842 518.180677 
L 709.675213 515.924783 
L 713.156507 513.138028 
L 716.918568 509.720704 
L 720.870876 505.820129 
L 726.727332 499.708159 
L 735.710894 490.006134 
L 735.548165 484.564325 
M 653.452716 537.086259 
L 657.26248 526.48546 
L 660.822989 517.457751 
L 663.397227 511.460704 
L 667.250815 503.176333 
L 671.029651 495.47566 
L 669.284103 495.497164 
M 669.284103 495.497164 
L 673.051193 488.366307 
L 675.550531 483.219345 
L 677.955509 477.880709 
L 681.257108 469.854833 
L 684.130761 462.200063 
L 686.773896 454.825979 
L 686.139733 454.328133 
M 687.643778 659.637865 
L 691.36283 644.803587 
L 693.326096 636.02472 
L 697.350941 617.222089 
L 698.813792 611.443163 
L 701.089216 603.54899 
L 703.397398 596.15335 
L 703.945633 595.059527 
M 687.643778 659.637865 
L 681.684958 682.823538 
L 676.812465 703.040133 
L 671.762452 725.056384 
L 671.564073 723.82645 
M 686.139733 454.328133 
L 687.884786 450.638471 
L 688.729786 448.537064 
L 689.533036 446.229711 
L 690.980455 440.994386 
L 692.270339 435.0745 
L 694.88818 422.574948 
L 697.787309 410.406185 
L 697.581027 411.039283 
M 686.139733 454.328133 
L 693.374892 440.41721 
L 697.435661 432.95546 
L 701.518442 425.85435 
L 706.782694 417.096288 
L 705.494956 414.193537 
M 686.139733 454.328133 
L 694.835959 437.943817 
L 700.687067 427.462961 
L 706.747507 417.037392 
L 708.511429 415.489573 
M 686.139733 454.328133 
L 692.44785 472.585563 
L 694.637386 478.540378 
L 697.04119 484.453928 
L 703.22058 498.827689 
L 705.176276 504.640718 
L 706.724303 510.491221 
L 708.667999 519.287587 
L 708.463655 519.989069 
M 671.564073 723.82645 
L 672.307813 730.854247 
L 672.623312 735.996087 
L 672.69522 741.513936 
L 672.438855 750.603578 
L 672.023324 764.178185 
L 671.821073 778.449753 
L 671.95743 778.329721 
M 686.315677 784.000323 
L 675.600505 780.865382 
L 671.95743 778.329721 
M 697.581027 411.039283 
L 704.750324 388.729483 
L 711.055665 368.369164 
L 710.662146 368.445316 
M 652.568007 793.98626 
L 656.774968 791.304194 
L 660.799786 788.37141 
L 664.622226 785.1576 
L 668.2971 781.735905 
L 671.919448 778.239868 
L 671.95743 778.329721 
M 707.735124 519.338392 
L 707.838409 507.606735 
L 707.755773 488.335572 
L 707.068815 415.893752 
L 705.494956 414.193537 
M 707.735124 519.338392 
L 713.714609 513.472443 
L 720.327023 506.608702 
L 735.916641 490.293426 
L 737.181848 485.993604 
M 707.735124 519.338392 
L 712.06863 515.197398 
L 716.762721 510.385458 
L 725.444546 500.979754 
L 735.755628 489.844323 
L 737.311788 486.108805 
M 707.929864 519.511384 
L 707.721661 476.641862 
L 706.94917 415.876394 
L 708.511429 415.489573 
M 707.929864 519.511384 
L 708.463655 519.989069 
M 707.929864 519.511384 
L 713.666107 513.703513 
L 720.195964 506.729132 
L 729.080466 497.264103 
L 736.010112 490.147895 
L 737.441614 486.224134 
M 707.929864 519.511384 
L 714.899345 512.394218 
L 724.741029 501.847541 
L 735.837655 489.772133 
L 737.571329 486.339589 
M 710.662146 368.445316 
L 713.777955 360.870107 
L 725.782801 330.466411 
L 726.11993 326.731047 
M 708.463655 519.989069 
L 735.656918 490.094633 
L 738.153646 486.8607 
M 708.463655 519.989069 
L 721.306805 505.712671 
L 728.775698 497.688232 
L 735.871223 490.314694 
L 738.282739 486.976849 
M 708.463655 519.989069 
L 709.043039 520.513439 
M 705.494956 414.193537 
L 708.397611 407.423197 
L 713.019282 396.042469 
L 720.599109 376.866916 
L 721.883019 372.82745 
M 705.494956 414.193537 
L 706.148212 419.576882 
L 706.638442 425.537133 
L 706.962525 432.087419 
L 707.234672 442.766883 
L 707.766498 479.999218 
L 708.097052 500.615352 
L 708.62393 518.592896 
L 708.850252 520.338272 
M 708.850252 520.338272 
L 714.174274 513.935488 
L 722.031025 504.990794 
L 728.574964 497.853863 
L 735.985946 490.126788 
L 738.73367 487.384363 
M 708.850252 520.338272 
L 712.735133 515.542858 
L 717.152247 510.44699 
L 725.642573 501.083874 
L 734.262352 491.940807 
L 738.669336 487.326052 
M 708.850252 520.338272 
L 714.083618 514.077271 
L 720.41072 506.836655 
L 725.903959 500.821367 
L 735.906414 490.288554 
L 738.797975 487.442705 
M 708.850252 520.338272 
L 703.749903 516.697523 
L 698.03762 512.981595 
L 683.426998 503.751982 
L 675.533164 498.405111 
L 671.706107 495.753164 
L 670.969471 496.192964 
M 708.850252 520.338272 
L 709.235483 520.688982 
M 703.945633 595.059527 
L 700.610763 603.516433 
L 697.517878 610.584513 
L 692.958759 620.242252 
L 688.265847 629.78319 
M 721.883019 372.82745 
L 714.890806 390.941861 
L 709.69742 404.930267 
L 706.978974 411.710481 
L 704.107474 418.28947 
L 699.515525 428.028519 
L 693.4571 440.784104 
L 689.487849 449.820499 
L 684.936439 461.044622 
L 676.273922 482.638304 
L 671.172991 495.174843 
L 670.969471 496.192964 
M 721.883019 372.82745 
L 720.726854 380.394518 
L 720.043853 386.152222 
L 719.456713 392.516937 
L 719.006057 399.335805 
L 718.56574 409.878517 
L 718.113022 420.282913 
L 717.635008 427.161341 
L 716.679223 437.470323 
L 715.915166 444.453986 
L 714.929177 451.547551 
L 713.655578 458.646895 
L 711.525958 469.479429 
L 710.29516 477.105737 
L 709.389997 485.086476 
L 708.840496 493.210998 
L 708.598585 501.170643 
L 708.611569 512.541155 
L 708.713965 519.938213 
L 709.235483 520.688982 
M 709.043039 520.513439 
L 708.469041 511.92136 
L 708.071724 502.911031 
L 707.769631 490.491233 
L 707.499384 469.746806 
L 707.44932 446.155437 
L 707.359387 430.79801 
L 707.112094 415.966364 
L 708.511429 415.489573 
M 709.043039 520.513439 
L 712.997775 515.491452 
L 717.806892 509.827373 
L 725.122162 501.59843 
L 735.691566 490.022766 
L 738.990719 487.617919 
M 709.043039 520.513439 
L 713.354676 515.144491 
L 718.743089 508.858488 
L 726.630891 500.030299 
L 735.91677 489.890408 
L 738.926499 487.559483 
M 709.043039 520.513439 
L 713.105278 515.415683 
L 718.02986 509.592278 
L 723.607434 503.318324 
L 731.178586 495.216423 
L 736.765143 489.407171 
L 739.05491 487.676386 
M 709.235483 520.688982 
L 713.714579 514.901629 
L 719.048083 508.522793 
L 724.852931 501.983325 
L 732.347607 493.956972 
L 735.986306 490.1366 
L 739.247311 487.851976 
M 709.235483 520.688982 
L 713.248836 515.476516 
L 718.066316 509.676543 
L 725.274726 501.417753 
L 735.76859 489.858273 
L 739.183206 487.793414 
M 709.235483 520.688982 
L 714.28026 514.22517 
L 718.807268 508.746147 
L 723.906223 502.884933 
L 729.153143 497.208684 
L 736.011623 490.135598 
L 739.311388 487.910568 
M 733.367667 688.31261 
L 758.423103 701.258761 
L 762.201645 703.569139 
L 765.873991 706.166074 
L 771.290492 710.347515 
L 771.468502 711.275859 
M 681.625411 785.833515 
L 675.601199 780.652992 
L 671.95743 778.329721 
M 679.261294 786.700153 
L 676.239321 781.917741 
L 675.472065 780.741914 
L 671.95743 778.329721 
M 670.969471 496.192964 
L 676.034417 483.336089 
L 682.469592 466.893965 
L 686.414978 456.436783 
L 688.225962 455.190619 
M 670.969471 496.192964 
L 675.575662 484.635408 
L 680.540204 472.231675 
L 684.094684 462.762842 
L 686.546084 455.996582 
L 688.145925 455.156958 
M 670.969471 496.192964 
L 677.044993 480.89545 
L 681.367078 469.90364 
L 686.280342 456.74902 
L 688.305981 455.22432 
M 676.88515 787.533253 
L 675.337525 781.37481 
L 671.95743 778.329721 
L 671.95743 778.329721 
" clip-path="url(#pfe39eb1a51)" style="fill: none; stroke: #d62728; stroke-opacity: 0.8; stroke-width: 1.5; stroke-linecap: square"/>
   </g>
  </g>
 </g>
 <defs>
  <clipPath id="pfe39eb1a51">
   <rect x="0" y="0" width="1238.4" height="1238.4"/>
  </clipPath>
 </defs>
</svg>
