<?xml version="1.0" encoding="utf-8" standalone="no"?>
<!DOCTYPE svg PUBLIC "-//W3C//DTD SVG 1.1//EN"
  "http://www.w3.org/Graphics/SVG/1.1/DTD/svg11.dtd">
<svg xmlns:xlink="http://www.w3.org/1999/xlink" width="1238.4pt" height="1238.4pt" viewBox="0 0 1238.4 1238.4" xmlns="http://www.w3.org/2000/svg" version="1.1">
 <metadata>
  <rdf:RDF xmlns:dc="http://purl.org/dc/elements/1.1/" xmlns:cc="http://creativecommons.org/ns#" xmlns:rdf="http://www.w3.org/1999/02/22-rdf-syntax-ns#">
   <cc:Work>
    <dc:type rdf:resource="http://purl.org/dc/dcmitype/StillImage"/>
    <dc:date>2025-01-30T01:04:23.505315</dc:date>
    <dc:format>image/svg+xml</dc:format>
    <dc:creator>
     <cc:Agent>
      <dc:title>Matplotlib v3.8.4, https://matplotlib.org/</dc:title>
     </cc:Agent>
    </dc:creator>
   </cc:Work>
  </rdf:RDF>
 </metadata>
 <defs>
  <style type="text/css">*{stroke-linejoin: round; stroke-linecap: butt}</style>
 </defs>
 <g id="figure_1">
  <g id="patch_1">
   <path d="M 0 1238.4 
L 1238.4 1238.4 
L 1238.4 0 
L 0 0 
L 0 1238.4 
z
" style="fill: none"/>
  </g>
  <g id="axes_1">
   <g id="line2d_1">
    <path d="M 682.516186 501.718642 
L 679.978857 519.473719 
L 678.176878 531.151878 
L 676.245603 542.052337 
L 674.75593 549.705729 
M 682.516186 501.718642 
L 684.306679 496.73099 
L 686.319006 491.805187 
L 688.555326 487.092138 
L 691.011364 482.581265 
L 693.671331 478.163598 
L 697.926985 471.562336 
L 702.316483 464.949893 
L 703.315119 462.393408 
M 682.516186 501.718642 
L 686.657044 505.031181 
L 691.436396 509.168183 
L 704.620692 520.989592 
L 720.554026 535.655868 
L 728.694908 542.900103 
M 682.516186 501.718642 
L 687.323405 505.495786 
L 691.527439 509.207527 
L 699.49579 516.379701 
L 707.528774 523.498431 
L 716.634526 531.969541 
L 722.927445 537.357339 
L 727.668711 541.285059 
L 728.911481 543.211843 
M 682.516186 501.718642 
L 687.215373 505.531322 
L 692.406139 510.103619 
L 722.277529 536.851003 
L 727.819774 541.659342 
M 667.290498 494.708583 
L 670.326325 493.214313 
L 671.856738 492.706012 
L 673.371667 492.443173 
L 674.845957 492.433692 
L 677.594706 492.899631 
L 678.854276 493.140336 
L 680.045397 493.222772 
L 681.184022 493.056097 
L 682.28844 492.591011 
L 683.37587 491.819607 
L 684.459935 490.767928 
L 686.650733 488.02455 
L 690.07934 483.031405 
L 693.795876 477.664432 
L 695.09283 475.999235 
L 696.408437 474.548712 
L 697.734014 473.414298 
L 699.059886 472.660458 
L 700.377846 472.287301 
L 701.682659 472.226165 
L 705.528432 472.634285 
L 706.819641 472.529343 
L 708.142698 472.150068 
L 709.515805 471.463165 
L 710.957104 470.474835 
L 714.110645 467.764085 
L 719.570605 462.773879 
L 733.304978 450.695094 
L 737.000253 447.260609 
L 740.534987 444.327742 
L 743.943973 442.034986 
L 748.952182 439.233472 
L 751.04755 440.061246 
M 703.315119 462.393408 
L 713.667998 496.811563 
L 716.703507 507.980314 
L 719.763098 519.410314 
L 721.911934 526.393856 
L 724.149968 532.616021 
L 727.58623 541.192273 
L 727.209957 540.81213 
M 703.315119 462.393408 
L 699.740103 468.243697 
L 692.15941 480.229474 
L 689.66558 485.035395 
L 687.297971 490.406204 
L 685.044579 496.168534 
L 682.834072 502.068248 
L 679.562514 500.174054 
M 745.134926 435.856432 
L 742.811279 439.487015 
L 740.241362 442.991025 
L 737.410437 446.228846 
L 734.397864 449.146133 
L 729.846151 453.279363 
L 728.398115 454.772027 
L 727.005234 456.387806 
L 724.378275 460.002422 
L 720.646512 465.944816 
L 719.84362 472.453545 
M 745.134926 435.856432 
L 751.711692 426.552577 
L 768.65225 401.955666 
L 770.478316 399.295232 
M 689.210945 564.296606 
L 683.861763 566.862965 
L 672.205904 572.656763 
L 666.500199 574.909776 
L 662.557974 576.456979 
L 658.635076 578.224263 
L 654.838628 580.23526 
L 649.367378 583.541456 
L 647.560778 584.664042 
L 647.560778 584.926905 
M 689.210945 564.296606 
L 692.641671 560.947396 
L 701.352991 552.171548 
L 711.388121 542.627188 
L 719.783302 534.893034 
L 722.051418 534.156513 
M 770.478316 399.295232 
L 773.624755 395.122989 
L 775.911312 391.835788 
L 786.230942 376.288572 
L 792.759052 367.219737 
L 795.873751 362.769999 
M 722.051418 534.156513 
L 723.008408 534.389781 
L 723.972925 534.370721 
L 724.952541 534.043576 
L 725.958967 533.397473 
L 727.006667 532.454919 
L 729.282115 529.857768 
L 739.330945 517.200274 
L 742.379417 513.235691 
L 743.889678 511.417886 
L 745.401447 509.80298 
L 746.923353 508.431173 
L 748.460305 507.305589 
L 750.012483 506.392878 
L 753.145794 504.948527 
L 754.715496 504.266361 
L 754.071233 503.124977 
M 647.560778 584.926905 
L 649.808547 582.641696 
L 652.183259 579.929598 
L 654.75193 576.662084 
L 663.813205 564.438396 
L 674.7886 549.485453 
L 674.75593 549.705729 
M 795.873751 362.769999 
L 798.929452 358.641773 
L 802.271044 353.619082 
L 806.060527 347.964693 
L 821.321194 326.280788 
M 754.071233 503.124977 
L 756.657573 500.816854 
L 759.380009 498.631559 
L 762.303899 496.555346 
L 768.94011 492.320043 
L 774.32941 488.791195 
L 781.559447 483.769693 
L 790.688569 477.275519 
L 790.316284 477.095508 
M 728.694908 542.900103 
L 727.209957 540.81213 
M 728.694908 542.900103 
L 736.420913 537.969485 
L 741.308126 534.584479 
L 746.452608 530.767446 
L 753.246867 525.297227 
L 759.753328 520.181535 
L 762.954607 517.743791 
L 765.19321 517.466805 
M 728.694908 542.900103 
L 712.426458 528.1056 
L 703.165418 520.015842 
L 692.80088 510.609146 
L 687.225832 505.904816 
L 681.606252 501.320704 
L 679.562514 500.174054 
M 821.321194 326.280788 
L 819.114475 331.345367 
L 815.670129 339.873253 
L 812.082461 349.175799 
L 808.493225 359.10762 
L 803.576903 373.483624 
L 798.553922 388.860561 
L 794.862014 400.141061 
L 791.158654 410.574141 
L 787.422569 420.252064 
L 778.755388 441.817829 
L 775.147403 452.141545 
L 766.627983 476.821721 
L 759.97295 495.466816 
L 758.046276 501.941476 
L 756.150712 508.522883 
L 754.072836 514.770103 
L 751.734891 520.410071 
L 745.79576 533.306455 
L 743.612304 538.867069 
L 740.426661 547.698099 
L 735.91729 560.313077 
M 799.929117 412.282618 
L 800.452972 400.068772 
L 800.963289 393.498897 
L 801.746734 386.668784 
L 806.556961 349.411071 
L 809.597248 323.670427 
L 810.674797 319.213261 
M 799.929117 412.282618 
L 797.602954 432.590432 
L 795.074618 456.364665 
L 793.586252 466.984867 
L 792.149785 477.264131 
L 790.919264 487.82165 
L 789.548186 501.975581 
L 789.220547 505.509635 
L 789.172565 505.264451 
M 691.840947 507.244197 
L 687.407714 517.656387 
L 682.462322 529.225954 
L 678.990404 537.954455 
L 674.823795 549.132032 
L 674.75593 549.705729 
M 691.840947 507.244197 
L 695.880563 501.386549 
L 699.547112 495.743403 
L 702.200416 491.349492 
L 704.876347 486.581979 
L 708.678015 479.203135 
L 713.355045 469.454839 
L 714.109373 468.681326 
M 691.840947 507.244197 
L 696.160779 501.026758 
L 705.177115 487.544625 
L 708.090499 483.901523 
L 711.199652 480.41999 
L 716.19731 475.274937 
L 719.623406 471.849012 
L 719.84362 472.453545 
M 728.911481 543.211843 
L 727.209957 540.81213 
M 728.911481 543.211843 
L 744.750529 532.074422 
L 750.119588 527.830991 
L 757.497777 522.027343 
L 763.072146 517.828649 
L 765.481974 517.882458 
M 735.91729 560.313077 
L 724.483803 591.680467 
L 712.7079 623.877304 
L 687.439673 694.111318 
L 681.081308 711.860298 
L 650.73349 794.322408 
L 650.756339 794.322408 
M 781.696123 636.729879 
L 781.066571 625.679081 
L 780.050407 613.782881 
L 778.818221 601.533669 
L 778.366715 598.591669 
M 781.696123 636.729879 
L 773.991166 652.320903 
L 773.546008 652.470609 
M 781.696123 636.729879 
L 783.474611 646.822544 
L 784.909909 653.49228 
L 786.588217 660.088608 
L 789.575924 670.539116 
M 793.252858 656.203555 
L 785.216285 659.665656 
L 784.506211 659.791987 
M 839.906714 646.822738 
L 836.905025 640.376372 
L 834.710695 636.098249 
L 831.122338 629.697235 
L 825.947943 621.137569 
L 816.415636 605.951434 
L 794.074804 570.275999 
L 779.756321 546.661999 
L 765.248495 523.287279 
L 758.944825 512.649308 
L 752.49194 501.52556 
L 750.181667 498.753068 
M 839.906714 646.822738 
L 842.618288 646.372369 
L 845.478534 646.12237 
L 848.572476 646.077056 
L 853.655295 646.284201 
L 860.67399 646.848382 
L 879.951032 648.602855 
L 881.800569 648.742719 
L 884.048057 652.347285 
M 762.929805 198.201638 
L 766.662619 204.895777 
L 769.174672 209.852601 
L 772.957077 217.967303 
L 779.127008 232.005758 
L 788.314372 253.680966 
L 823.370368 336.201702 
L 830.527728 352.946742 
L 844.972223 386.993891 
L 859.327682 420.935892 
M 793.146906 656.698456 
L 787.978724 637.674228 
L 784.065088 623.591182 
L 781.52699 613.616543 
L 778.650266 601.205634 
L 778.366715 598.591669 
M 793.146906 656.698456 
L 790.515566 657.126965 
L 789.088836 657.185026 
L 787.576567 657.110458 
L 785.986728 656.900652 
L 782.64102 656.121522 
L 779.17981 654.992867 
L 773.923335 653.023716 
L 773.546008 652.470609 
M 793.146906 656.698456 
L 789.30869 669.874377 
L 789.575924 670.539116 
M 765.023514 198.922258 
L 775.204787 222.844785 
L 786.527537 249.450446 
L 801.444562 284.531121 
L 814.200324 314.63893 
L 824.360763 338.792148 
L 850.898448 401.111784 
L 858.397222 419.216971 
L 859.327682 420.935892 
M 747.382051 656.350649 
L 748.625717 652.702738 
L 750.271696 649.082493 
L 752.292611 645.432364 
L 764.401184 624.953142 
L 771.990149 610.913184 
L 778.304265 599.161485 
L 778.366715 598.591669 
M 747.382051 656.350649 
L 753.886634 658.594816 
L 767.794075 663.541069 
L 771.625487 664.652801 
L 779.132268 666.48095 
L 784.293749 667.810241 
L 789.177135 669.193892 
L 790.109402 668.734199 
M 747.382051 656.350649 
L 755.437315 658.80507 
L 757.015817 659.083216 
L 758.650066 659.199163 
L 760.326251 659.11537 
L 762.027493 658.815982 
L 763.736917 658.305666 
L 765.441142 657.604639 
L 767.132537 656.743244 
L 770.475271 654.68835 
L 773.795148 652.463489 
L 773.546008 652.470609 
M 747.382051 656.350649 
L 753.879656 658.774505 
L 767.333354 663.504578 
L 772.606813 665.051767 
L 781.292935 667.327579 
L 786.172312 668.916211 
L 789.349469 670.032868 
L 789.575924 670.539116 
M 709.801179 521.209003 
L 706.970424 522.876443 
L 703.95125 525.112585 
L 700.775365 527.893112 
L 697.53794 531.054767 
L 691.069656 537.578277 
L 687.792543 540.450732 
L 684.49727 542.940097 
L 681.248521 545.110001 
L 674.90417 548.974009 
L 674.75593 549.705729 
M 709.801179 521.209003 
L 712.796499 515.079288 
L 716.069291 507.729345 
L 722.001381 493.629316 
L 726.864642 481.978394 
L 728.604968 478.863927 
M 709.801179 521.209003 
L 711.728552 518.33633 
L 712.741653 517.14474 
L 713.807286 516.162306 
L 714.936765 515.385623 
L 716.137256 514.782693 
L 718.758026 513.884957 
L 723.196776 512.523327 
L 726.42855 511.273436 
L 731.627043 508.877249 
L 740.976527 504.217763 
L 750.251229 499.362583 
L 750.181667 498.753068 
M 767.11361 199.65329 
L 768.337499 203.973714 
L 769.946728 208.855234 
L 773.045085 217.198835 
L 776.590309 226.055795 
L 782.582671 240.249599 
L 805.232355 293.582131 
L 828.300141 347.803218 
L 844.881532 386.843534 
L 855.099201 411.210642 
L 857.991052 418.180422 
L 859.327682 420.935892 
M 728.604968 478.863927 
L 732.980145 471.264737 
L 735.318768 466.842216 
L 737.662389 461.804378 
L 742.407753 451.022854 
L 744.956485 446.117839 
L 748.92838 439.263224 
L 751.04755 440.061246 
M 773.546008 652.470609 
L 785.01939 659.155973 
L 784.506211 659.791987 
M 789.575924 670.539116 
L 785.507985 660.498568 
L 784.506211 659.791987 
M 750.181667 498.753068 
L 766.179824 524.934014 
L 780.472525 547.806343 
L 806.09726 589.564051 
L 834.153122 634.292626 
L 840.415328 644.327596 
L 840.47001 641.872718 
M 714.109373 468.681326 
L 720.977712 459.363187 
L 725.412854 452.786761 
L 731.16228 443.706888 
L 737.777741 433.077832 
L 738.404763 431.411039 
M 790.316284 477.095508 
L 793.796759 474.08652 
L 799.491434 469.604824 
L 807.982502 462.838514 
L 818.585069 454.344341 
L 825.04667 449.342769 
L 824.781842 448.966801 
M 746.774784 658.385245 
L 749.536601 634.488701 
L 750.104053 626.563801 
L 750.444382 618.418638 
L 751.398267 587.331312 
L 752.562249 561.57958 
L 753.895624 536.002824 
L 755.84019 503.535073 
L 758.332127 463.078905 
L 759.971516 432.293972 
L 761.317444 408.082873 
L 762.154194 394.427082 
L 762.405915 393.955018 
M 746.774784 658.385245 
L 746.478667 659.33664 
M 746.774784 658.385245 
L 748.511906 644.763924 
L 750.14501 633.807542 
L 751.40856 626.457931 
L 752.833848 619.135854 
L 755.193882 608.262157 
L 759.243484 589.856597 
L 762.49755 573.873183 
L 768.780217 541.702987 
L 772.366651 522.618274 
L 777.296382 495.685273 
L 784.327515 458.837131 
L 786.55734 446.298637 
L 791.213507 418.703465 
L 792.841796 410.98097 
L 794.749651 403.172776 
L 801.095393 379.038404 
L 802.865378 370.756803 
L 804.362193 362.643556 
L 805.604768 354.814382 
L 807.096065 343.689055 
L 809.581948 323.177166 
L 810.674797 319.213261 
M 824.781842 448.966801 
L 830.063384 444.830621 
L 844.446895 433.019245 
L 857.448668 421.929218 
L 859.327682 420.935892 
M 738.404763 431.411039 
L 741.850477 426.261432 
L 749.841681 413.944517 
L 755.575578 405.279144 
L 759.723189 398.578748 
L 762.405915 393.955018 
M 738.404763 431.411039 
L 739.285159 452.925391 
L 740.332649 487.266146 
L 741.301352 517.916977 
L 742.66577 556.054837 
L 744.574989 598.870421 
L 745.282449 608.560744 
L 746.751861 626.303664 
L 747.173916 634.554267 
L 747.312868 642.475455 
L 747.177783 653.950443 
L 747.108265 657.746096 
L 746.478667 659.33664 
M 840.47001 641.872718 
L 842.991658 643.197508 
L 845.704461 644.253295 
L 848.702083 645.033788 
L 852.01125 645.622116 
L 859.259223 646.56783 
L 866.965959 647.36154 
L 872.962326 647.720416 
L 881.098498 647.921994 
L 884.724012 646.407262 
M 762.405915 393.955018 
L 772.015904 379.231822 
L 777.818342 370.677505 
L 780.730416 366.079496 
L 786.42485 356.501769 
L 786.460383 356.533054 
M 746.478667 659.33664 
L 749.175226 659.183729 
L 752.049081 659.370986 
L 755.16888 659.945499 
L 758.52508 660.847552 
L 771.567163 664.802651 
L 784.259122 668.075642 
L 789.212554 669.657057 
L 788.90489 672.71552 
M 746.478667 659.33664 
L 749.182879 639.926677 
L 752.902846 614.783103 
L 754.835392 599.654874 
L 760.371318 553.256968 
L 763.280933 528.023652 
L 769.646744 478.997695 
L 774.485294 447.799719 
L 776.851649 429.283701 
L 780.117037 403.548766 
L 786.460383 356.533054 
M 786.460383 356.533054 
L 791.455275 349.002344 
L 796.224595 341.855148 
L 800.191348 336.366177 
L 805.591598 328.89685 
L 809.575024 323.165805 
L 810.674797 319.213261 
M 778.366715 598.591669 
L 780.227438 583.508316 
L 789.172565 505.264451 
M 727.209957 540.81213 
L 725.909781 540.295743 
L 724.539189 539.924934 
L 723.084757 539.748233 
L 721.54792 539.789253 
L 719.941389 540.047292 
L 718.284488 540.500613 
L 714.895908 541.826463 
L 709.765406 544.062204 
L 706.286249 545.213249 
L 702.689469 545.9413 
L 698.984526 546.282907 
L 695.252165 546.343582 
L 687.855537 546.343452 
L 684.236215 546.619821 
L 680.702995 547.132685 
L 675.491793 548.120913 
L 674.75593 549.705729 
M 727.209957 540.81213 
L 727.819774 541.659342 
M 679.562514 500.174054 
L 685.201294 491.278643 
L 689.441186 484.309181 
L 692.270905 479.345631 
L 696.534176 471.293716 
L 699.382921 465.743335 
L 699.683352 460.498738 
L 699.683352 460.498738 
" clip-path="url(#p177bcff6e1)" style="fill: none; stroke: #1f77b4; stroke-opacity: 0.8; stroke-width: 1.5; stroke-linecap: square"/>
   </g>
   <g id="line2d_2">
    <path d="M 807.089729 519.540067 
L 804.998255 515.127758 
L 802.88326 510.194335 
L 800.76089 504.746661 
L 797.58781 495.831772 
L 792.299109 479.883784 
L 786.346206 461.395276 
L 779.083625 438.536398 
L 774.46636 425.352466 
L 772.697818 425.496059 
M 807.089729 519.540067 
L 807.667501 524.053402 
L 808.541646 529.049061 
L 809.812844 534.435898 
L 810.617287 537.181523 
L 811.534268 539.909974 
L 813.670788 545.251487 
L 816.137624 550.564326 
L 820.260774 559.178481 
L 823.141967 565.573101 
L 827.410527 575.741066 
L 832.573867 588.870406 
L 838.039561 603.550258 
L 841.553051 613.404303 
M 790.967033 665.673076 
L 786.269314 663.264885 
L 781.247976 660.357233 
L 774.490111 656.031533 
L 772.80433 654.929137 
L 772.4573 655.610432 
M 790.967033 665.673076 
L 789.648763 670.296768 
M 790.967033 665.673076 
L 792.36035 658.467644 
L 793.13192 654.722735 
L 793.718381 653.941833 
M 752.656414 618.75888 
L 750.827018 605.761966 
L 748.56542 591.044905 
L 748.005996 584.928214 
L 747.864916 578.685504 
L 748.049857 572.389044 
L 748.588147 559.655408 
L 748.636249 553.128365 
L 748.39208 543.09532 
L 747.21469 512.560659 
L 745.855996 484.634779 
L 743.325215 438.714183 
L 742.091872 417.942272 
L 741.048893 404.0989 
L 740.20532 393.455188 
L 739.632399 382.881202 
L 739.338755 372.614008 
L 738.499356 332.646311 
L 737.888793 331.306043 
M 752.656414 618.75888 
L 752.656764 619.518052 
M 752.656414 618.75888 
L 785.46171 618.833914 
L 793.68013 618.785146 
L 797.141885 618.61184 
M 752.657129 619.138465 
L 750.746427 605.457247 
L 748.040417 587.710842 
L 747.628304 581.814397 
L 747.629754 575.814678 
L 748.324638 555.597914 
L 748.27418 544.656925 
L 747.881123 526.556078 
L 747.38072 512.724135 
L 746.476819 495.137009 
L 742.44104 423.872591 
L 740.886497 402.830138 
L 740.088264 391.753177 
L 739.577344 381.285795 
L 739.2427 368.263171 
L 738.861253 352.287999 
L 738.212191 335.893761 
L 738.06878 332.587456 
L 737.888793 331.306043 
M 752.657129 619.138465 
L 752.656764 619.518052 
M 752.657129 619.138465 
L 764.933583 619.028276 
L 785.430861 618.880816 
L 793.657624 618.765791 
L 797.142838 619.117954 
M 752.656764 619.518052 
L 750.691734 604.838453 
L 748.797286 593.213794 
L 747.37695 584.187524 
L 746.168543 574.485897 
L 743.41314 547.663413 
L 740.179724 515.360172 
L 739.297566 509.104283 
L 738.262892 503.055509 
L 734.996165 485.614927 
L 734.185582 479.519362 
L 733.248873 469.786075 
L 732.30779 459.605824 
L 731.880452 456.322988 
L 731.351134 453.215404 
L 730.707218 450.338876 
L 729.954284 447.712585 
L 728.227789 443.094018 
L 726.45883 438.87636 
L 725.648001 436.716657 
L 724.926284 434.430926 
L 724.317687 431.98071 
L 723.8386 429.35614 
L 723.495259 426.572121 
L 723.282053 423.660579 
L 723.16474 417.603645 
L 723.245681 405.331158 
L 722.97808 399.324603 
L 722.445856 393.431359 
L 721.385852 384.755078 
L 720.232797 376.167774 
L 720.669994 372.325383 
M 752.656764 619.518052 
L 764.945225 619.216564 
L 793.574831 618.806611 
L 797.142352 619.624069 
M 721.80994 372.797005 
L 717.462378 383.61463 
L 714.688088 391.146405 
L 711.822047 399.623722 
L 706.857143 414.772275 
M 721.80994 372.797005 
L 724.204979 366.212488 
L 727.267761 358.591637 
L 735.684719 338.734864 
L 738.129501 332.730477 
L 739.320295 331.900375 
M 739.320295 331.900375 
L 739.113877 340.25372 
L 739.060776 365.169304 
L 739.161477 374.594097 
L 739.595994 384.026096 
L 740.751013 400.918997 
L 741.404461 411.789362 
L 741.51155 418.813078 
L 741.246419 425.452287 
L 740.711006 431.844429 
L 739.226782 447.754123 
L 738.477204 457.376036 
L 738.497095 458.969217 
M 739.320295 331.900375 
L 733.304559 344.816813 
L 729.400132 353.570685 
L 725.439986 362.981711 
L 720.44915 375.62795 
L 716.040112 387.333098 
L 711.969795 398.387939 
L 709.694448 403.799631 
L 707.089739 409.178232 
L 704.23458 414.49961 
L 699.800821 422.242586 
L 693.922877 432.506288 
L 691.069685 437.876139 
L 688.34729 443.408986 
L 685.798876 449.036327 
L 682.252702 457.585123 
L 677.571518 469.618256 
L 672.812101 482.492874 
L 668.257687 495.373605 
L 666.936218 494.572305 
M 747.434755 656.16832 
L 748.146162 652.217108 
L 748.6398 647.765939 
L 750.142629 627.330506 
L 750.43253 620.589946 
L 750.441179 613.747666 
L 750.105752 606.877407 
L 749.430867 599.912478 
L 748.479782 592.719954 
L 746.732526 581.454226 
L 745.489517 573.802165 
L 745.012835 572.87511 
M 747.434755 656.16832 
L 751.004329 657.050857 
L 754.755074 657.654578 
L 758.673385 657.84153 
L 766.784132 657.75421 
L 768.836799 657.889099 
L 770.891033 658.159927 
L 772.939638 658.590762 
L 774.971221 659.19446 
L 776.971655 659.971415 
L 778.927818 660.910868 
L 780.831632 661.993747 
L 784.487787 664.488671 
L 789.772137 668.615892 
L 790.179673 668.491093 
M 747.434755 656.16832 
L 749.412373 650.438957 
L 751.747177 644.46653 
L 755.149375 636.464977 
L 755.672315 635.414057 
M 738.497095 458.969217 
L 739.012238 477.685078 
L 739.034582 493.156278 
L 739.282865 499.717988 
L 739.94643 509.962172 
L 741.069765 523.813688 
L 742.721911 541.108715 
L 745.029803 565.499021 
L 745.644726 572.37321 
L 745.012835 572.87511 
M 738.497095 458.969217 
L 736.92697 462.437615 
L 735.47159 466.574132 
L 732.425315 476.358298 
L 728.986634 486.382213 
L 727.572837 491.471958 
L 726.527731 496.666652 
L 725.818224 501.880054 
L 725.129114 509.645803 
L 724.925648 512.229121 
L 724.00168 514.353584 
M 745.012835 572.87511 
L 750.869759 603.949937 
L 750.374877 604.332844 
M 745.012835 572.87511 
L 747.875318 588.330106 
L 748.887378 594.138704 
L 749.731487 600.318456 
L 750.019514 603.53838 
L 750.26401 610.191226 
L 750.182909 617.010825 
L 750.025954 627.027655 
L 750.152154 633.239606 
L 750.652776 641.947316 
L 750.842864 644.804234 
L 750.230388 644.534688 
M 789.648763 670.296768 
L 787.313074 667.330149 
L 784.592628 664.440769 
L 781.539207 661.681168 
L 778.295508 659.060506 
L 773.302082 655.262013 
L 772.673225 653.013398 
M 789.648763 670.296768 
L 784.488014 661.904299 
L 784.695865 659.928966 
M 789.648763 670.296768 
L 787.361731 667.434603 
L 784.757364 664.685829 
L 781.808447 662.021837 
L 778.522505 659.418389 
L 774.937315 656.935387 
L 771.120309 654.643896 
L 767.146267 652.537864 
L 759.223457 648.720463 
L 751.655677 645.17395 
L 750.137193 645.01202 
M 749.356087 336.305403 
L 746.972748 340.614657 
L 744.559584 345.364137 
L 740.928684 353.217999 
L 736.039252 363.821592 
L 732.382381 371.146367 
L 729.952303 375.876118 
L 729.985902 376.363183 
M 749.356087 336.305403 
L 750.995717 341.622507 
L 752.459019 347.255024 
L 753.623672 353.388842 
L 754.545964 360.039777 
L 756.33043 373.946882 
L 760.742842 403.929735 
L 763.22469 423.119851 
L 765.214487 435.837482 
L 770.882052 470.855209 
L 778.150505 516.231546 
L 782.080229 540.738068 
L 787.240633 575.164976 
L 791.406645 601.426604 
L 793.432116 614.365885 
L 795.583759 626.567527 
L 796.679165 632.506298 
L 796.605208 633.022183 
M 749.356087 336.305403 
L 754.607199 353.312267 
L 756.825726 359.446112 
L 759.425368 365.406743 
L 762.328957 371.116325 
L 771.446108 388.085569 
L 775.836913 396.971572 
L 780.076452 406.006669 
L 786.863105 421.141631 
L 830.552113 519.32007 
L 843.765943 549.028759 
L 851.66419 566.806908 
L 880.02765 631.564601 
L 884.65157 642.558544 
L 885.100663 642.439479 
M 749.356087 336.305403 
L 752.779174 347.355422 
L 759.653789 370.616266 
L 768.653272 402.187054 
L 773.094484 418.020242 
L 776.731267 429.99349 
L 787.449654 464.18204 
L 798.488983 498.299222 
L 803.107077 512.846557 
L 806.226876 523.490273 
L 818.765815 567.633893 
L 831.99948 612.429646 
L 838.392229 634.225769 
L 840.713632 639.35391 
M 749.356087 336.305403 
L 754.654923 353.439567 
L 760.442971 372.785454 
L 764.636267 387.826445 
L 771.854415 413.535114 
L 776.061519 427.689688 
L 782.3724 448.10198 
L 789.602251 470.70934 
L 803.10268 512.801535 
L 806.09897 523.125622 
L 815.261529 555.965907 
L 821.220457 575.731839 
L 827.079502 595.335066 
L 835.869341 625.359902 
L 840.50203 641.558021 
M 718.155733 529.653521 
L 718.466257 524.039471 
L 719.03286 518.390063 
L 719.943895 512.901105 
L 722.104487 502.327876 
L 722.862661 496.764392 
L 723.253541 490.720682 
L 723.32348 484.135378 
L 723.070259 473.156562 
L 722.535862 452.665037 
L 722.289799 432.89727 
L 722.229705 425.338099 
L 722.387478 422.154793 
M 718.155733 529.653521 
L 724.679121 537.242304 
L 727.310041 540.36655 
L 727.598789 541.350713 
M 718.155733 529.653521 
L 727.317435 521.225072 
L 748.74402 502.218518 
L 751.056046 499.710906 
M 718.155733 529.653521 
L 730.869558 518.122779 
L 749.116877 502.009701 
L 751.225842 499.898543 
M 750.230388 644.534688 
L 754.447391 637.026134 
L 755.284109 635.504727 
L 755.672315 635.414057 
M 750.137193 645.01202 
L 761.181794 649.561428 
L 768.973303 652.897612 
L 772.832771 654.595747 
L 772.4573 655.610432 
M 750.137193 645.01202 
L 757.39046 647.879536 
L 762.933512 650.130383 
L 766.673586 651.910326 
L 772.518916 654.848503 
L 774.532645 655.706298 
L 776.564615 656.404102 
L 778.597114 656.901864 
L 780.609049 657.181836 
L 782.580958 657.247093 
L 784.500022 657.116791 
L 786.363021 656.821009 
L 789.954055 655.885053 
L 793.472717 654.772542 
L 793.718381 653.941833 
M 729.985902 376.363183 
L 727.358158 379.622101 
L 724.59259 382.521388 
L 720.402996 386.622169 
L 719.059221 388.143906 
L 717.759029 389.826301 
L 716.507242 391.691571 
L 715.305621 393.741393 
L 713.045845 398.329428 
L 710.940255 403.393139 
L 707.91281 411.365739 
L 706.857143 414.772275 
M 796.605208 633.022183 
L 802.85059 633.361288 
L 815.956983 634.446939 
L 822.340451 635.003649 
L 826.90672 635.608964 
L 831.522915 636.52393 
L 836.097224 637.695898 
L 840.648873 638.962504 
L 840.956509 636.477729 
M 651.752009 794.140067 
L 653.969783 784.819629 
L 658.70895 766.261965 
L 664.125089 745.789462 
L 665.597363 740.336588 
L 665.649922 740.352405 
M 651.752009 794.140067 
L 653.302617 786.818236 
L 655.167789 780.772425 
M 885.100663 642.439479 
L 929.41744 646.317671 
L 929.41744 646.312725 
M 723.783007 325.887275 
L 719.386718 339.689202 
L 704.837635 384.047495 
L 697.247943 407.03594 
L 694.352239 416.676168 
L 687.255051 441.383138 
L 684.025402 451.45054 
L 680.65279 461.126051 
L 668.262503 495.084967 
L 668.527394 495.193479 
M 840.713632 639.35391 
L 848.065807 640.570255 
L 856.409202 641.731121 
L 863.744777 642.515354 
L 868.929993 642.840042 
L 874.039575 642.957235 
L 881.435682 642.866762 
L 883.878902 642.817358 
L 885.016359 643.384692 
M 840.50203 641.558021 
L 844.312626 641.480012 
L 848.368199 641.562352 
L 855.174083 641.99241 
L 865.731123 642.689477 
L 873.812725 642.908247 
L 884.037758 642.855706 
L 884.762435 646.029625 
M 750.374877 604.332844 
L 754.345084 628.777286 
L 755.463344 635.495834 
L 755.672315 635.414057 
M 724.00168 514.353584 
L 722.964712 519.329611 
L 721.673292 524.496944 
L 711.400493 562.754248 
L 709.368053 570.313613 
M 755.672315 635.414057 
L 755.282032 636.90198 
L 755.027497 638.374838 
L 754.95972 639.817863 
L 755.113207 641.214223 
L 755.508667 642.549668 
L 756.155713 643.816351 
L 757.052498 645.013582 
L 758.184657 646.146133 
L 759.526615 647.22183 
L 761.045661 648.249655 
L 764.477174 650.197335 
L 770.154466 652.969698 
L 772.082081 653.883805 
L 772.673225 653.013398 
M 738.093474 331.390511 
L 735.292684 338.907227 
L 731.725893 347.660154 
L 725.05245 363.245543 
L 721.104855 372.358313 
L 720.669994 372.325383 
M 738.093474 331.390511 
L 739.150166 335.921363 
L 740.528253 340.40142 
L 742.260082 344.953269 
L 745.492164 352.391569 
L 749.199113 361.094794 
L 751.653933 367.516756 
L 757.334844 383.545541 
L 759.739492 389.103306 
L 762.318861 394.217785 
L 764.956581 399.327715 
L 767.47252 404.762999 
L 769.749679 410.577935 
L 771.814862 416.659169 
L 773.800874 422.833778 
L 772.697818 425.496059 
M 772.673225 653.013398 
L 772.4573 655.610432 
M 647.560778 584.926905 
L 649.178011 574.345808 
L 650.453909 564.043174 
L 651.46464 553.855237 
L 652.950771 536.737338 
L 652.950175 536.87843 
M 647.560778 584.926905 
L 649.515575 574.486435 
L 650.996357 567.724284 
L 653.437208 557.988754 
L 658.394392 539.326883 
M 652.950175 536.87843 
L 656.158919 528.437973 
L 661.85867 513.846378 
L 664.563044 506.260531 
L 667.829573 496.431383 
L 668.527394 495.193479 
M 772.4573 655.610432 
L 784.314019 661.852118 
L 784.695865 659.928966 
M 709.368053 570.313613 
L 704.616412 588.884624 
L 695.707803 622.883928 
L 694.870498 626.396018 
M 694.870498 626.396018 
L 689.777582 646.369265 
L 684.79811 665.914258 
L 680.286515 683.073883 
L 680.303501 683.070182 
M 784.695865 659.928966 
L 789.358735 657.135737 
L 792.993457 654.806519 
L 793.718381 653.941833 
M 680.303501 683.070182 
L 673.459852 709.920727 
L 666.933149 735.416837 
L 665.649922 740.352405 
M 665.649922 740.352405 
L 661.570355 756.061569 
L 660.433397 760.547833 
M 660.433397 760.547833 
L 656.982321 773.309546 
L 655.167789 780.262979 
L 655.167789 780.772425 
M 655.167789 780.772425 
L 653.54147 786.913926 
M 655.167789 780.772425 
L 651.503189 794.186183 
M 653.54147 786.913926 
L 650.881206 780.315161 
L 648.805596 774.842288 
L 648.325852 774.130181 
M 653.54147 786.913926 
L 658.886739 792.62058 
L 659.676751 792.47808 
M 653.54147 786.913926 
L 654.311894 788.011832 
L 655.160816 789.022525 
L 657.077259 790.801059 
L 659.183741 792.592505 
M 653.54147 786.913926 
L 651.938335 793.315186 
L 651.005353 794.277354 
M 653.54147 786.913926 
L 651.938331 793.315186 
L 651.254304 794.231946 
M 648.325852 774.130181 
L 649.536991 778.740092 
L 650.428442 783.686613 
L 651.028498 788.927346 
L 651.519148 794.277354 
L 651.503189 794.186183 
M 648.325852 774.130181 
L 645.939809 763.219533 
L 642.960641 750.524944 
M 659.676751 792.47808 
L 652.577603 794.103302 
L 651.503189 794.186183 
M 659.676751 792.47808 
L 658.531442 792.264524 
L 657.4262 791.836287 
L 656.368491 791.114043 
L 655.359 790.049346 
L 654.393713 788.622045 
L 653.466268 786.836398 
L 652.569836 784.717701 
L 650.842488 779.650627 
L 649.150887 773.785411 
L 643.864587 753.960896 
L 642.960641 750.524944 
M 659.183741 792.592505 
L 652.345841 794.277354 
L 651.503189 794.186183 
M 659.183741 792.592505 
L 658.107655 792.379159 
L 657.07699 791.9654 
L 656.098427 791.280602 
L 655.17017 790.28538 
L 654.285778 788.969144 
L 653.437079 787.341104 
L 652.616374 785.423438 
L 651.035203 780.850972 
L 649.496478 775.537892 
L 645.498955 760.37049 
L 642.960641 750.524944 
M 725.225853 538.148612 
L 725.543835 533.639411 
L 725.649282 528.600472 
L 725.503641 519.958826 
L 724.927293 503.573042 
L 724.254558 490.479463 
L 722.667883 462.538768 
L 722.366766 452.676106 
L 722.194662 439.227237 
L 722.108791 423.289974 
L 722.387478 422.154793 
M 725.225853 538.148612 
L 727.598789 541.350713 
M 725.225853 538.148612 
L 728.678097 537.474879 
L 730.426449 536.975226 
L 732.189735 536.351481 
L 735.762178 534.73851 
L 739.421792 532.677624 
L 743.245007 530.223745 
L 749.516556 525.893329 
L 761.238198 517.583434 
L 760.567804 511.131483 
M 725.225853 538.148612 
L 728.558154 537.540782 
L 730.243965 537.081095 
L 731.949925 536.495408 
L 735.449843 534.931327 
L 739.11097 532.881427 
L 742.972627 530.439418 
L 751.111918 524.931079 
L 761.263024 517.931263 
L 760.490924 511.030988 
M 725.225853 538.148612 
L 728.628364 537.489327 
L 730.356591 536.988971 
L 732.104287 536.358457 
L 735.64275 534.734446 
L 739.207296 532.727098 
L 742.763357 530.473804 
L 749.919612 525.561932 
L 761.323978 517.514258 
L 760.644612 511.232032 
M 658.394392 539.326883 
L 667.609591 518.768396 
L 670.154349 513.797944 
L 672.892771 508.958486 
L 677.215696 501.934643 
L 678.671701 499.611471 
L 676.153152 498.505562 
M 676.153152 498.505562 
L 678.680131 495.339222 
L 681.198451 491.695287 
L 683.688671 487.571866 
L 686.142977 483.051997 
L 688.537851 478.254245 
L 691.917715 470.906438 
L 696.101567 461.211976 
L 695.366317 458.382238 
M 695.366317 458.382238 
L 697.228686 454.40494 
L 698.076092 452.1964 
L 699.590772 447.261587 
L 700.932945 441.715139 
L 706.857143 414.772275 
M 695.366317 458.382238 
L 699.134688 452.873683 
L 703.489421 446.119477 
L 708.297831 438.124582 
L 713.213126 429.3093 
L 718.125554 419.981015 
M 695.366317 458.382238 
L 700.435215 450.814124 
L 706.155077 441.735431 
L 709.173911 436.959998 
L 712.225995 432.585764 
L 713.738459 430.695618 
L 715.230192 429.041881 
L 716.697953 427.616482 
L 719.573191 425.286228 
L 722.415712 423.230723 
L 722.387478 422.154793 
M 695.366317 458.382238 
L 705.264658 483.794894 
L 712.129921 501.034264 
L 714.23323 507.238767 
L 718.178727 519.980561 
L 720.39906 525.975968 
L 722.857801 531.483232 
L 725.479789 536.589336 
L 728.158665 541.548068 
L 727.598789 541.350713 
M 706.857143 414.772275 
L 712.888529 396.607871 
L 721.134356 372.412436 
L 720.669994 372.325383 
M 726.762302 540.198986 
L 726.095243 526.428717 
L 723.512554 478.345172 
L 722.830407 464.395866 
L 722.434356 450.138206 
L 722.055551 440.009109 
L 721.551274 433.821023 
L 720.463028 425.17287 
L 720.075416 422.336566 
L 718.125554 419.981015 
M 726.762302 540.198986 
L 731.937458 537.466685 
L 735.483741 535.383206 
L 741.016847 531.816557 
L 747.009836 527.599783 
L 753.579651 522.648114 
L 760.4596 517.304115 
L 762.541466 513.763363 
M 726.762302 540.198986 
L 731.770562 537.589084 
L 735.250747 535.566082 
L 740.611093 532.122668 
L 759.490077 519.440926 
L 761.492675 518.140996 
L 762.691266 513.967319 
M 726.986566 540.50524 
L 726.180749 526.531714 
L 725.330525 510.326611 
L 724.41242 492.415645 
L 722.804292 463.900267 
L 722.483301 453.276919 
L 722.235024 435.653827 
L 722.132734 425.314788 
L 722.387478 422.154793 
M 726.986566 540.50524 
L 727.598789 541.350713 
M 726.986566 540.50524 
L 731.770308 537.961484 
L 735.003501 536.031569 
L 739.896101 532.825292 
L 748.238582 527.011114 
L 757.389965 520.356963 
L 761.21842 517.528215 
L 762.840775 514.171489 
M 726.986566 540.50524 
L 732.088464 537.664115 
L 735.812868 535.357145 
L 742.043791 531.143992 
L 748.828318 526.188267 
L 758.101816 518.987877 
L 760.42536 517.159322 
L 762.989994 514.375871 
M 720.669994 372.325383 
L 729.142278 353.690449 
L 735.934623 338.4323 
L 738.100488 333.490122 
L 737.888793 331.306043 
M 727.598789 541.350713 
L 738.709718 533.653655 
L 751.306335 524.745296 
L 761.284911 518.110474 
L 763.657875 515.298206 
M 727.598789 541.350713 
L 735.177414 536.223227 
L 743.557307 530.250286 
L 753.103221 523.523215 
L 761.410767 517.882201 
L 763.80549 515.503749 
M 727.598789 541.350713 
L 728.259105 542.278478 
M 718.125554 419.981015 
L 724.371451 405.925391 
L 728.15037 398.025918 
L 732.240247 390.124378 
L 737.846101 379.885281 
L 736.676673 379.528418 
M 718.125554 419.981015 
L 719.461407 425.164971 
L 720.488633 430.792556 
L 721.193599 436.882597 
L 721.665378 443.302817 
L 724.644985 497.691498 
L 725.584512 515.954349 
L 726.673963 532.053987 
L 727.26768 540.223739 
L 728.03988 541.968598 
M 728.03988 541.968598 
L 739.999194 532.992263 
L 746.746799 528.037695 
L 752.614626 524.007365 
L 764.31984 516.224797 
M 728.03988 541.968598 
L 733.82113 537.437578 
L 743.294442 530.446278 
L 750.034211 525.649876 
L 757.455498 520.672435 
L 764.246581 516.121633 
M 728.03988 541.968598 
L 734.430727 537.022986 
L 741.819814 531.564247 
L 749.368047 526.224846 
L 756.449597 521.453058 
L 764.393025 516.328012 
M 728.03988 541.968598 
L 724.768855 538.457122 
L 721.174207 535.093562 
L 717.26842 531.84378 
L 705.117034 522.123016 
L 695.454817 513.981865 
L 684.168961 504.128243 
L 678.821917 499.385204 
L 678.544708 499.663333 
M 728.03988 541.968598 
L 728.477448 542.588981 
M 736.676673 379.528418 
L 733.854373 385.707971 
L 724.809021 405.083134 
L 718.938401 417.562232 
L 715.776744 423.878524 
L 710.69846 433.43536 
L 703.863773 446.107852 
L 700.761996 452.250806 
L 696.573968 461.125167 
L 684.426044 487.601691 
L 678.544708 499.663333 
M 736.676673 379.528418 
L 737.975018 385.135317 
L 738.499208 388.03726 
L 738.894715 390.983323 
L 739.13476 393.944996 
L 739.20627 396.898923 
L 739.112886 399.832536 
L 738.87327 402.744867 
L 738.069398 408.562699 
L 734.820675 427.811819 
L 733.954046 435.019378 
L 733.362074 442.43304 
L 733.033009 449.866869 
L 732.540933 467.408702 
L 732.279058 470.591109 
L 731.897218 473.647982 
L 731.392942 476.593781 
L 730.103352 482.254037 
L 728.026056 490.625335 
L 726.930766 496.385469 
L 726.220011 502.405424 
L 725.893094 508.727049 
L 725.903733 515.314208 
L 726.20054 521.975351 
L 726.720689 528.495205 
L 727.738721 537.958163 
L 728.094533 541.087368 
L 728.477448 542.588981 
M 728.259105 542.278478 
L 726.900123 530.487617 
L 726.0602 520.920956 
L 725.208646 507.150729 
L 723.53661 478.852325 
L 722.975963 468.195624 
L 722.607088 457.395168 
L 722.283937 439.729396 
L 722.055551 423.520209 
L 722.387478 422.154793 
M 728.259105 542.278478 
L 734.11138 537.525507 
L 741.200114 532.14315 
L 747.534473 527.601123 
L 757.084282 521.089848 
L 762.054002 517.761214 
L 764.61214 516.637971 
M 728.259105 542.278478 
L 733.737701 537.774159 
L 739.922375 533.045433 
L 747.226372 527.7654 
L 758.845123 519.767973 
L 761.308276 518.089881 
L 764.539175 516.534599 
M 728.259105 542.278478 
L 732.553414 538.717909 
L 738.958913 533.785294 
L 746.544351 528.244123 
L 753.573996 523.444179 
L 761.266454 518.352173 
L 764.685032 516.741394 
M 728.477448 542.588981 
L 732.538114 539.02967 
L 736.939455 535.427492 
L 743.355249 530.503375 
L 748.708058 526.698844 
L 754.416218 522.91544 
L 762.24939 517.955144 
L 764.903265 517.051975 
M 728.477448 542.588981 
L 732.501333 538.939819 
L 736.918286 535.319967 
L 743.363025 530.411569 
L 748.709013 526.598024 
L 754.411394 522.862182 
L 762.262664 518.063168 
L 764.830594 516.948396 
M 728.477448 542.588981 
L 731.969471 539.371963 
L 736.121338 535.990693 
L 742.579471 531.092571 
L 748.130833 527.104534 
L 754.088891 523.160643 
L 762.262809 518.133506 
L 764.975862 517.155605 
M 651.503189 794.186183 
L 651.005353 794.277354 
M 651.503189 794.186183 
L 651.254304 794.231946 
M 642.960641 750.524944 
L 646.115704 762.862286 
L 648.362781 771.829006 
L 649.60733 778.15216 
L 650.50899 784.579335 
L 651.513529 794.277354 
L 651.005353 794.277354 
M 678.544708 499.663333 
L 684.064137 488.208973 
L 688.71449 478.119246 
L 693.868207 466.336405 
L 696.506233 460.194454 
L 698.326277 459.817778 
M 678.544708 499.663333 
L 687.27554 481.246277 
L 690.831643 473.232324 
L 696.372328 460.042955 
L 698.212926 459.761554 
M 678.544708 499.663333 
L 685.537014 485.05042 
L 689.892918 475.437466 
L 694.227904 465.21829 
L 696.364124 460.060976 
L 698.439588 459.874082 
L 698.439588 459.874082 
" clip-path="url(#p177bcff6e1)" style="fill: none; stroke: #d62728; stroke-opacity: 0.8; stroke-width: 1.5; stroke-linecap: square"/>
   </g>
  </g>
 </g>
 <defs>
  <clipPath id="p177bcff6e1">
   <rect x="0" y="0" width="1238.4" height="1238.4"/>
  </clipPath>
 </defs>
</svg>
